<svg width="38" height="38" viewBox="0 0 38 38" fill="none" xmlns="http://www.w3.org/2000/svg">
<path d="M37.9986 19C37.9986 29.4936 29.4926 38 18.9993 38C8.50601 38 0 29.4936 0 19C0 8.50632 8.50601 0 18.9993 0C29.4926 0 37.9986 8.50632 37.9986 19ZM13.0979 7.55056C10.4142 7.87134 7.94466 10.3399 7.56896 13.0072C7.06143 16.6128 7.84469 21.1213 7.52062 24.8214C7.9864 27.7315 10.2648 30.0308 13.1902 30.467C19.174 29.8012 28.7565 33.1563 30.467 24.9213C29.7815 18.9418 33.1639 9.35772 25.0127 7.54836C21.2414 7.79444 16.7923 7.10893 13.0979 7.55056Z" fill="#0D0907"/>
</svg>
