<svg width="50" height="15" viewBox="0 0 50 15" fill="none" xmlns="http://www.w3.org/2000/svg">
<path d="M22.051 13.49C25.7314 13.1087 26.5335 8.71216 27.9703 6.05472C29.0654 4.02967 31.9693 0.62126 34.5267 2.06507C37.4423 3.71115 34.8197 10.4582 32.7551 12.2461C34.5012 14.6594 36.6448 11.1278 37.5027 9.54915C38.3606 7.97049 40.0741 3.4089 41.3482 2.47891C41.9411 2.04647 43.6546 2.16271 43.6476 2.69281C43.6453 2.96018 40.7112 6.24769 40.867 7.22186C43.0687 5.23168 45.4541 2.99273 48.5277 2.57656C47.5629 5.22935 45.854 7.62872 45.0379 10.3489C43.4105 15.7708 46.3771 12.9064 47.8721 10.3954C48.2069 9.8328 49.3252 7.11723 49.4624 6.98936C49.7437 6.72199 49.8809 7.01725 49.9855 7.28463C50.1599 7.73102 48.7021 10.4791 48.3371 11.0929C47.3699 12.7181 45.5215 15.5313 43.4081 13.8503C40.9902 11.9299 44.1126 7.84029 44.8566 5.74782C44.9473 5.49207 45.0821 5.14566 44.6985 5.13636C43.5616 5.10846 40.5205 8.81911 39.8905 9.84675C39.3046 10.8023 38.449 13.3575 37.9538 13.948C37.4097 14.599 36.2356 14.3432 35.5218 14.1851L36.217 12.7948C35.3544 13.6527 34.3059 13.9619 33.0876 13.7178C32.5459 13.6109 32.3041 12.9785 31.9553 13.0413C31.8647 13.0575 30.9602 13.8573 30.4069 14.0642C27.6867 15.0849 26.4986 13.2668 26.58 10.7023C25.8476 11.9741 24.5875 13.8248 23.0437 14.1363C22.4183 14.2619 19.3098 14.4827 18.7355 14.3665C17.9102 14.2014 16.9895 13.4574 16.9383 12.5623C14.0135 15.7801 10.74 13.9154 12.293 9.77467C10.9469 11.3231 10.1238 14.6083 7.54546 14.1735C5.9854 13.9108 6.04353 12.1485 5.90868 10.9372C1.96321 17.4448 -1.73583 13.5458 0.872786 7.29393C2.09572 4.36446 5.29721 0.949082 8.77072 1.80467C9.30779 1.93719 10.7609 2.64398 10.8539 3.19035C10.8725 3.29498 10.7004 3.94365 10.6679 3.9669C10.0913 4.37144 9.65652 3.1857 9.22408 2.97645C6.55036 1.68842 2.93969 7.4683 2.1957 9.5445C1.90042 10.3652 0.998336 13.1738 2.45842 13.1994C3.79528 13.2226 5.86915 9.65145 6.52945 8.53546C7.65938 6.63364 7.98022 3.51352 10.9004 4.77831C9.8681 6.73361 8.65214 8.72611 8.22434 10.9255C7.4664 14.8129 9.14503 13.218 10.5354 11.1464C11.2608 10.0653 12.6325 7.87284 13.1742 6.82661C13.4183 6.35696 14.3739 3.98317 14.3878 3.59025C14.4111 2.9718 13.895 2.88346 13.9252 2.34174C14.9296 2.27199 16.0037 2.54634 16.9407 2.10924C16.9918 2.49984 16.8872 2.85788 16.7826 3.22755C16.0781 5.73155 13.7764 9.40965 13.5067 11.816C13.4486 12.3414 13.4695 12.753 13.7229 13.2249C16.1781 13.7248 16.3431 11.3743 17.208 9.92347C17.4684 9.48638 17.9823 9.22598 18.2008 8.82608C19.2145 6.96378 21.3744 0.521287 23.3808 0.0679174C25.0409 -0.306403 26.1941 0.979305 25.185 1.18158C24.7758 1.26295 24.1039 0.17719 23.2088 1.29085C21.672 3.19965 23.9133 6.02682 24.2713 7.90539C24.7502 10.4117 23.5994 11.7369 22.0533 13.4877L22.051 13.49ZM32.9644 10.7023C33.541 9.1725 35.9264 4.46444 34.2594 3.25313C32.3738 1.87907 29.8024 6.95216 29.3049 8.32157C28.7724 9.79095 27.4705 14.9942 30.6231 13.1226C32.0135 12.2973 30.7115 11.723 30.6301 10.5861C30.5441 9.39337 31.4159 8.49594 32.4087 9.28875C32.9713 9.7398 32.4552 10.5303 32.9644 10.7023ZM21.0931 12.9971C21.1651 12.9552 21.7487 11.7555 21.8301 11.53C22.8391 8.69124 21.5139 6.57784 21.5836 3.73905L20.4583 5.7455C20.3188 6.65689 19.0866 8.22392 19.082 9.00743C19.082 9.32363 19.4307 9.5631 19.4842 9.90719C19.5679 10.4675 19.7725 13.7643 21.0954 12.9994L21.0931 12.9971Z" fill="#0D0907"/>
</svg>
