<svg width="16" height="14" viewBox="0 0 16 14" fill="none" xmlns="http://www.w3.org/2000/svg">
<path d="M12.3735 1.15901C13.0651 1.96849 12.4978 2.9182 11.7839 2.46566C11.1943 2.09278 11.666 1.10483 9.79526 1.26737C6.69437 1.53825 2.11155 8.4093 2.05418 11.3572C2.0255 12.9316 3.19192 12.82 4.21811 12.0711C6.9302 10.0856 7.82254 6.17844 9.79526 3.96989C10.5697 3.09986 11.0286 3.08711 12.1855 3.17953C14.0084 3.32613 13.0173 3.60658 12.4309 4.37145C11.0955 6.1147 9.24711 9.79562 9.55305 12.001C9.7857 13.6678 11.4206 11.9819 11.9528 11.3604C12.485 10.739 12.9822 9.88804 13.4092 9.16142C13.7248 8.62601 14.4896 6.76165 14.7318 6.50988C14.9135 6.32185 15.4585 6.15613 15.4585 6.59593C15.4616 7.97906 12.5456 12.479 11.36 13.3172C9.55305 14.5952 7.29033 14.098 7.16285 11.6695C7.13417 11.1341 7.30626 10.7421 7.33176 10.2514C7.34132 10.0793 7.4178 9.80837 7.16922 9.8498C6.1749 11.8767 2.02868 16.2109 0.393784 12.5491C-1.48332 8.34238 3.72414 0.760642 8.11574 0.0690758C9.42876 -0.138075 11.462 0.0913838 12.3735 1.15901Z" fill="#0D0907"/>
</svg>
