<svg width="13" height="17" viewBox="0 0 13 17" fill="none" xmlns="http://www.w3.org/2000/svg">
<path d="M11.526 12.2451C11.6237 12.3357 12.4172 12.1117 12.6865 12.2761C13.0343 12.4905 13.2941 16.203 12.3219 16.4889C8.95733 16.2721 4.92559 16.9154 1.64444 16.5318C-0.109324 16.3269 -0.171276 14.5803 0.152789 13.1268C0.400603 12.0235 1.37279 12.45 1.53244 11.6518C1.82077 8.34442 1.1369 4.38178 1.51338 1.1602C1.61346 0.302378 2.02331 0.190385 2.83109 0.0974551C3.97246 -0.0336004 9.98195 -0.0645786 10.8231 0.209446C11.0185 0.273783 11.3092 0.404838 11.4093 0.576402C12.0598 1.67727 11.0971 11.8472 11.5236 12.2451H11.526ZM5.81438 1.7702H2.95738V6.05452H5.81438V1.7702ZM10.0987 1.7702H7.2417V6.05452H10.0987V1.7702ZM5.81438 7.48183H2.95738V12.0044H5.81438V7.48183ZM10.0987 7.48183H7.2417V12.0044H10.0987V7.48183ZM11.5284 13.6724H1.76835V14.8638H11.5284V13.6724Z" fill="#0D0907"/>
</svg>
