<svg width="65" height="18" viewBox="0 0 65 18" fill="none" xmlns="http://www.w3.org/2000/svg">
<path d="M29.9283 16.1133C31.1642 16.0067 31.8816 15.1366 32.56 14.2239C35.2485 10.6013 36.6584 3.3669 41.7868 2.1807C46.3789 1.1188 46.9472 5.87427 45.9954 9.20915C45.8498 9.72412 44.8553 11.6419 44.866 11.784C44.9299 12.6257 47.5403 12.2102 48.2896 11.4963C49.4901 10.3527 50.7721 6.74085 51.8056 5.08939C53.2156 2.83773 53.8052 2.13098 56.7423 2.93007C54.899 4.74134 53.6063 7.08179 52.484 9.39383C54.8386 7.10665 57.7899 4.34002 60.9579 3.2355C61.5368 3.03306 63.1989 2.4151 62.8224 3.49831C61.8564 6.27205 59.5941 9.24822 58.518 12.3096C58.2516 13.0696 57.1862 15.8008 58.2943 16.0955C59.8427 16.5075 62.0802 13.0661 62.7479 11.9261C63.0249 11.4573 64.0868 8.98185 64.2324 8.89306C64.5307 8.71194 64.9463 8.79362 64.996 9.19849C65.1203 10.2 62.3252 14.6075 61.5332 15.4953C60.1375 17.0616 57.7757 18.262 55.9041 16.7099C54.0324 15.1579 55.929 11.1696 56.831 9.38672C57.2572 8.54146 58.1771 7.60031 58.1735 6.64851C58.1735 6.15484 57.5165 6.37859 57.2714 6.46383C55.794 6.97169 52.8249 10.5339 51.8802 11.887C51.3653 12.6257 48.968 17.0225 48.6341 17.1468C47.8919 17.4238 46.5601 17.2675 45.7397 17.5339L47.8706 12.9347C46.6559 13.2614 45.5479 13.5065 44.4043 12.782C41.9928 17.1255 35.2733 20.0839 34.4636 12.9311C33.4514 14.8809 32.0734 16.7881 29.804 17.3173C28.0211 17.1326 25.7304 17.6014 24.0292 17.3173C22.9815 17.1432 22.0191 16.3051 21.497 15.4101C20.4493 16.1133 19.8633 17.0331 18.4818 17.1823C16.294 17.4167 15.1043 16.5395 14.9267 14.3482C14.465 14.3553 12.8562 17.0615 11.3361 17.3173C8.17173 17.8464 7.72778 15.2467 8.26761 12.7571C6.88252 14.4441 2.9581 19.6684 0.731295 16.2873C-2.03889 12.0823 3.64709 3.50541 7.99415 2.12387C9.60298 1.61246 13.2042 1.55563 14.0353 3.37401C14.3123 3.98132 14.156 4.85499 13.3569 4.58863C12.7496 4.38619 12.8313 2.97624 10.8425 3.18933C7.81302 3.51252 2.72725 10.6866 2.41117 13.5491C2.30817 14.4725 2.14481 15.8114 3.38073 15.7724C6.48831 15.6729 9.32597 7.92705 11.2154 5.86007C12.1033 4.8905 13.7014 5.36996 14.845 5.58305C13.119 7.13506 9.75215 13.471 10.7146 15.5415C11.0271 16.2127 11.7836 15.9038 12.2702 15.5841C13.4386 14.8205 15.3174 11.5496 15.9424 10.2142C16.4006 9.23401 18.2474 4.91892 18.361 4.11627C18.5066 3.08278 17.3275 2.41865 18.4747 2.29435C19.2205 2.21266 21.703 2.04219 21.7598 3.08989C20.7192 6.11223 18.9506 8.98896 17.9064 11.9935C17.4128 13.4177 16.1768 16.1701 18.6593 15.9393C19.3199 15.8789 20.7192 14.8916 20.9643 14.334C21.2448 13.6983 21.0247 12.7749 21.5858 11.9438C22.0333 11.2832 22.8182 11.2726 23.0206 11.0311C23.6386 10.2924 24.8035 7.29843 25.4001 6.19036C26.5118 4.13048 28.3372 0.0178261 31.0861 6.84779e-05C32.4747 -0.0105861 33.6503 1.22534 32.3185 1.42067C31.5407 1.53432 31.4128 0.735232 30.4752 1.33899C29.7401 1.80779 29.3601 2.8768 29.3032 3.7114C29.1257 6.43186 31.8603 8.69773 31.8994 11.4217C31.9243 13.1442 31.1713 14.9271 29.9319 16.1097L29.9283 16.1133ZM45.0222 7.44049C45.3312 4.81592 44.4931 2.35117 41.6661 4.53535C39.4109 6.2756 36.6904 12.1391 37.4398 14.9164C37.8659 16.504 39.4925 16.06 40.5757 15.3071C41.1866 14.8809 43.2998 12.4055 43.3992 11.7343C43.456 11.3507 42.8594 10.3989 42.7422 9.80225C42.4119 8.10818 43.0796 6.35018 45.0258 7.44049H45.0222ZM27.7974 4.25478C27.2718 4.82303 26.8349 5.68605 26.462 6.37504C26.1388 6.97525 24.0648 10.9778 24.0754 11.2513C24.0861 11.5674 24.4554 11.7733 24.5229 12.0362C24.768 12.9773 24.6685 14.1067 25.2723 15.0088C26.9663 17.5446 28.6711 13.6414 28.8451 12.1178C29.1541 9.42934 27.7051 6.91842 27.7974 4.25834V4.25478Z" fill="#0D0907"/>
</svg>
