<svg width="40" height="47" viewBox="0 0 40 47" fill="none" xmlns="http://www.w3.org/2000/svg">
<path d="M22.9205 21.1188C21.9365 23.7512 20.4551 26.2059 19.1691 28.7104C23.5671 29.8187 28.1568 31.5594 31.8372 34.2344C35.1516 36.6465 39.8373 42.1066 36.0432 46.1031C35.6027 46.5685 33.9118 47.485 33.5565 46.6822C33.3256 46.1529 33.9651 46.2488 34.2741 45.9859C37.4678 43.2683 34.7217 38.8029 32.2173 36.6821C28.3025 33.3676 22.5297 31.6838 17.5172 31.0017C14.3556 35.4352 10.1743 38.9947 4.33768 38.4441C0.330521 38.064 -1.40307 34.3659 1.31455 31.1864C4.74621 27.1686 12.3804 27.5523 17.0981 28.3374C17.6984 28.1668 20.2775 22.0851 20.5866 21.0975C16.487 21.2396 10.6788 19.6268 9.65569 15.0868C8.56864 10.2732 12.693 6.02091 17.1016 4.96229C18.0324 4.73848 20.7073 3.98536 20.4125 5.51647C13.7836 5.2749 8.27024 15.2857 15.2721 19.0548C16.3592 19.641 19.5137 20.4367 20.6789 20.2165C20.9454 20.1667 21.0732 20.0744 21.1621 19.8151C23.5813 13.5699 26.3842 0.606989 34.704 0.0243883C41.6277 -0.462297 39.8692 6.45076 37.6703 10.4188C34.7715 15.6587 29.0947 20.6037 22.917 21.1224L22.9205 21.1188ZM23.6132 20.0353C29.29 19.1543 34.3985 14.323 36.6081 9.17549C37.4074 7.314 38.9811 2.39742 35.6027 2.31571C32.6258 2.24111 30.1426 6.23406 28.846 8.52184C26.8033 12.124 25.2367 16.2271 23.6097 20.0353H23.6132ZM15.6167 30.6607C11.6415 30.6358 6.67519 30.071 3.1263 32.2841C-0.0993244 34.2984 1.01614 37.1972 4.53662 37.5418C8.59706 37.9396 11.7978 35.4991 14.2845 32.6074C14.4444 32.4227 15.7446 30.7708 15.6131 30.6571L15.6167 30.6607Z" fill="#0D0907"/>
</svg>
