<svg width="13" height="16" viewBox="0 0 13 16" fill="none" xmlns="http://www.w3.org/2000/svg">
<path d="M1.47848 11.6531V0.349944C1.47848 0.324282 1.80277 0 1.82843 0H10.9176C11.046 0 11.2139 0.405936 11.2886 0.562245C11.7668 1.56542 11.5312 8.69495 11.5126 10.3863C11.5102 10.7013 11.3049 11.2192 11.3236 11.3172C11.4146 11.7838 12.4457 11.4828 12.637 12.0334C12.7444 12.346 12.735 14.3804 12.6767 14.812C12.5764 15.5749 12.3991 15.7592 11.6269 15.8618C8.34906 16.2934 4.08673 15.5515 0.699274 15.8128C-0.23391 15.4979 -0.464874 11.0746 1.47615 11.6555L1.47848 11.6531ZM5.67315 1.39978H2.87593V5.59444H5.67315V1.39978ZM9.86781 1.39978H7.07059V5.59444H9.86781V1.39978ZM5.67315 6.99189H2.87593V11.6531H5.67315V6.99189ZM9.86781 6.99189H7.07059V11.6531H9.86781V6.99189ZM11.2676 13.0529H1.47848C1.76544 13.3772 1.41549 14.4504 1.82843 14.4504H11.2676V13.0529Z" fill="#0D0907"/>
</svg>
