<svg width="31" height="11" viewBox="0 0 31 11" fill="none" xmlns="http://www.w3.org/2000/svg">
<path d="M24.5004 9.18509C22.5119 11.4189 20.3701 11.4377 18.3817 9.18509C17.4028 11.5675 14.0061 11.3174 12.8409 9.18981C10.968 11.7279 8.39932 11.2537 6.59957 8.95158C5.18666 12.8176 -0.252685 10.4117 0.00913954 6.73904C0.0633915 5.97243 3.27605 0.169836 3.68884 0.0330264L27.2106 0C27.5644 0.0165115 27.7154 0.228804 27.9159 0.474117C28.2225 0.849163 30.5412 5.22942 30.6851 5.71533C31.914 9.85027 26.7035 13.2162 24.5004 9.18509ZM1.64613 6.35692H6.1231L7.53601 1.41055C6.71751 1.54265 4.93663 1.1157 4.35165 1.64171C3.58269 2.33283 2.51416 5.41105 1.64377 6.35692H1.64613ZM12.4871 1.40819H9.18716L7.77425 6.35692H12.2512V2.23377C12.2512 2.11583 12.6239 1.73842 12.4871 1.40819ZM17.6693 6.35692C17.4641 5.64221 17.0325 1.71955 16.7423 1.50962C16.306 1.1959 14.5487 1.52377 13.8976 1.40583L13.6641 6.35456H17.6693V6.35692ZM21.9128 1.40819H18.377C18.7921 3.01216 18.7614 4.9275 19.4384 6.35692H23.3257L21.9128 1.40819ZM29.2179 6.35692L26.8356 1.78796C26.0595 1.01192 24.373 1.56859 23.3257 1.41055L24.9745 6.35692H29.2156H29.2179Z" fill="#0D0907"/>
</svg>
