<svg width="43" height="33" viewBox="0 0 43 33" fill="none" xmlns="http://www.w3.org/2000/svg">
<path d="M34.2517 2.01566L34.3485 2.33529C37.7869 3.19408 42.6717 5.77047 42.7137 9.81908C42.7621 14.5941 36.7796 18.8687 32.7213 20.3636C29.2893 21.6291 25.612 21.9068 21.9799 22.0489C18.464 26.8078 14.7608 31.8895 8.4587 32.871C5.96626 33.2584 0.616529 32.9259 0.0676743 29.7393C-0.691037 25.342 5.11392 24.438 8.26177 25.7552C8.90102 26.0232 9.21741 26.5172 8.25207 26.4106C7.12853 26.2847 6.47314 25.8263 5.12683 26.0135C2.02741 26.4429 1.71424 30.7595 4.57474 31.5247C10.0439 32.9808 15.3613 27.5277 18.012 23.4113C22.4028 16.5958 25.0696 8.4534 31.3427 2.90674L27.2263 2.5064C20.7886 2.19 7.61605 4.44354 5.14943 11.3914C2.83778 17.9034 10.4862 19.9051 13.7826 14.2035C13.9537 13.9064 14.3993 12.1759 14.8771 12.6408C15.0127 20.4443 2.16301 20.6122 2.60533 12.3922C3.11867 2.84217 21.105 0.82755 28.1949 1.21498C29.2732 1.27309 31.982 1.88652 32.7923 1.60886C33.1701 1.47972 33.861 0.830779 34.3517 0.591865C34.6907 0.427209 36.602 -0.415445 36.4406 0.256095C36.3405 0.669351 34.7198 1.71217 34.2517 2.02534V2.01566ZM22.6256 21.0028C26.4805 20.7865 30.3031 20.0536 33.6511 18.0777C37.4253 15.85 42.8202 10.0903 38.7652 5.79953C37.9128 4.89553 34.8522 3.3878 33.635 3.33291C33.4574 3.32645 33.3218 3.29417 33.1894 3.45237L22.6224 21.006L22.6256 21.0028Z" fill="#0D0907"/>
</svg>
