<svg width="34" height="62" viewBox="0 0 34 62" fill="none" xmlns="http://www.w3.org/2000/svg">
<path d="M19.5944 8.02074C20.1568 7.46756 22.1736 9.96844 22.5493 10.4778C23.3192 11.5266 23.907 12.6837 24.4717 13.85L25.5781 16.9986C25.3683 16.0236 25.7947 14.7489 25.7648 13.8915C25.6034 9.4429 24.0061 7.77872 25.8062 2.83459C26.0713 2.10853 27.1155 -0.754229 28.0006 0.188499C28.888 1.13353 29.1461 5.21792 29.0309 6.52022C28.8027 9.09255 27.2999 11.6303 26.9749 13.6771C26.7559 15.0624 27.0648 16.9041 26.7328 18.3838L28.6828 15.6156C29.2545 15.0094 32.4837 12.4301 33.1153 12.2135C33.7468 11.9968 34.0787 12.2158 33.9842 12.8865C33.8943 13.5158 32.8456 16.1987 32.5298 16.9294C31.0869 20.2462 28.7243 22.2861 25.6979 24.1439L23.9715 31.7411C25.6472 30.1184 27.2538 28.4496 29.342 27.3271C29.8722 27.0413 33.0599 25.3886 32.924 26.7554C32.894 27.0482 30.317 31.2732 29.9183 31.8171C27.8484 34.6315 24.6353 37.0356 21.3231 38.188L17.5245 44.7525L21.3162 43.0192C22.2451 42.6689 28.2241 40.6497 26.7444 43.1529C26.4724 43.6139 23.6304 46.3453 23.0518 46.827C20.2444 49.1688 16.7662 50.2453 13.1451 50.5057C11.9373 52.246 1.86695 62.0974 0.631489 61.8738C0.290355 61.8115 -0.0530746 61.2491 0.00685433 60.8896C4.72741 57.4459 8.90399 53.35 12.7994 49.0098C12.7809 44.28 12.0917 39.6609 13.8366 35.0763C14.0971 34.3895 15.1504 31.5498 16.1254 32.2228C16.296 32.3404 17.0013 35.7194 17.0612 36.2357C17.3701 38.8357 17.1373 41.4495 16.3767 43.9458C17.0981 43.1575 17.7343 42.0442 18.2552 41.1061C18.7761 40.168 20.9751 36.0029 20.9843 35.3161C21.005 33.8201 19.6059 31.6627 19.1265 30.2521C18.269 27.7258 18.0132 24.8354 18.2045 22.1732C18.5618 17.2037 20.4887 21.3042 21.3185 23.4524C22.1967 25.7297 22.4848 28.1615 22.5908 30.5863L23.2616 28.8437L24.8704 21.4748C22.9919 19.2874 21.194 17.4826 20.2813 14.5876C20.1038 14.0252 19.5944 12.2734 19.5944 11.8216C19.5944 11.2823 19.4584 8.15443 19.5944 8.02305V8.02074ZM26.7305 11.0126C27.6825 8.20053 27.966 5.4415 27.422 2.49576L26.6107 4.7892L26.2765 8.36418L26.7305 11.0126ZM24.4279 18.8448L23.2293 13.714L20.9797 10.7867C21.0995 13.8799 22.2566 16.6597 24.4302 18.8448H24.4279ZM26.5046 22.0672C29.1023 20.3661 30.9763 17.9643 31.7968 14.9287L28.6068 17.3789L26.5046 22.0672ZM21.2032 32.1974C21.2309 29.3001 21.0396 26.1976 19.8871 23.5008C19.765 23.2173 19.765 22.8209 19.3662 22.7586L19.6566 26.7255L21.2032 32.1974ZM22.358 36.3418C22.7867 36.7382 27.3621 32.882 27.8899 32.3196C28.3279 31.8517 30.7573 28.6893 30.4162 28.2836C27.0555 30.2221 24.1144 32.8382 22.358 36.3418ZM14.0648 46.2439C15.5169 42.3554 16.4412 38.9026 15.4478 34.7329L14.5949 36.7544C14.0648 39.5203 13.7329 42.6136 13.8389 45.4417C13.8481 45.7206 13.666 46.2992 14.0671 46.2439H14.0648ZM24.6607 43.4848C20.8759 44.2316 17.6928 45.7898 15.2196 48.777C18.7992 48.3391 22.4156 46.3199 24.6607 43.4848Z" fill="#0D0907"/>
</svg>
