<svg width="56" height="36" viewBox="0 0 56 36" fill="none" xmlns="http://www.w3.org/2000/svg">
<path d="M24.5195 17.2193L28.8912 10.4351C30.6604 8.11903 32.4779 5.3172 35.4566 4.47118C42.7041 2.41565 39.5484 12.9153 38.5544 16.3798C38.0108 18.2712 37.1101 20.301 36.6533 22.1829C36.6147 22.3437 36.441 22.7072 36.7401 22.6718C38.667 19.529 40.8673 16.4956 43.1834 13.6198C45.3194 10.9659 49.9934 5.36867 53.609 5.28825C56.9995 5.21426 55.7128 9.69204 54.9955 11.606C53.6766 15.1252 51.6018 18.4675 50.2925 22.1507C49.0991 25.5123 46.1589 34.2941 51.6371 35.1626C52.3159 35.2688 53.1104 34.96 53.6283 35.5808C52.956 36.2596 51.7079 35.9508 50.8619 35.7771C40.5006 33.6411 49.2728 18.8824 51.5696 13.3206C52.1904 11.8151 53.2938 9.64057 52.985 8.00322C52.7823 6.94168 51.7047 7.347 51.0227 7.64294C45.6764 9.9526 37.5797 23.2508 34.6267 28.4974C33.9737 29.6555 33.1566 32.2289 31.8763 32.6503C31.0142 32.9366 29.6117 32.8337 29.8594 31.6113C33.237 25.805 35.7429 19.5451 37.02 12.9249C37.3385 11.2683 38.0976 7.79413 37.4671 6.31762C36.3509 3.7088 33.0923 6.86769 32.0854 8.00644C27.7621 12.8767 24.304 19.3392 21.4893 25.1809C20.3634 27.5131 19.289 30.8232 17.9991 32.9238C17.6324 33.5221 17.1112 33.9564 16.3842 34.0432C13.2447 34.426 15.5221 31.9073 16.1848 30.6366C19.2247 24.8142 22.5155 16.9138 23.799 10.4866C26.7938 -4.49725 14.0424 1.17396 7.86938 7.43063C5.22195 10.1134 2.6453 14.2792 2.33005 18.104C1.49047 28.253 12.3439 28.3044 15.4803 20.3107C16.0368 18.8889 16.5998 15.8844 14.7179 15.2089C14.2 15.0223 11.8164 15.2539 11.9772 14.5751C12.2121 13.5844 15.6058 14.1827 16.4068 14.9676C19.289 17.7952 15.6959 23.1736 13.1803 25.0716C9.34589 27.9635 3.7937 27.7415 1.19774 23.3956C-4.75655 13.4396 12.9294 -2.97571 22.583 0.466266C29.4091 2.90138 25.7676 12.2719 24.5195 17.2193Z" fill="#0D0907"/>
</svg>
