<svg width="38" height="38" viewBox="0 0 38 38" fill="none" xmlns="http://www.w3.org/2000/svg">
<path d="M13.4528 37.1762C14.2186 35.7565 15.001 34.3653 15.5416 32.839C16.1449 31.1369 16.4855 29.3523 16.9701 27.6183C20.371 31.527 26.2508 29.4952 28.8814 25.7403C35.6545 16.0736 27.6946 4.68496 16.18 7.21455C8.66846 8.86505 3.99186 17.5911 8.85636 24.1382C9.17832 24.5711 10.7551 26.1282 11.2573 25.8118C11.4276 25.7052 11.9496 23.469 11.9243 23.1668C11.8968 22.8426 11.1188 21.7932 10.9244 21.3009C9.07503 16.6121 12.0704 11.5155 16.8767 10.4375C24.5025 8.72769 28.9528 15.4648 26.2837 22.3723C25.3399 24.814 22.7499 27.6315 19.8611 26.5392C16.1811 25.148 19.4699 20.1306 19.7029 17.5505C20.0864 13.3067 15.3867 13.2847 14.2538 16.8252C13.6516 18.7054 13.9736 20.0933 14.434 21.9416C13.6483 26.2271 11.8617 30.5336 12.021 34.9302C12.0386 35.4104 12.1902 36.0125 12.2012 36.5114C12.2045 36.6466 12.1902 36.6521 12.0803 36.7367C0.217388 32.0346 -3.89882 17.0538 4.22591 7.01785C11.0936 -1.46539 23.7993 -2.39503 31.8614 4.97946C37.883 10.487 39.6839 19.3449 36.3281 26.8139C32.4306 35.4895 22.6005 39.9575 13.4528 37.1773V37.1762Z" fill="#0D0907"/>
</svg>
