<svg width="96" height="23" viewBox="0 0 96 23" fill="none" xmlns="http://www.w3.org/2000/svg">
<path d="M26.0179 6.14015C26.3641 8.61295 22.1285 6.97737 21.5139 7.72274C20.7367 9.74337 19.8218 11.7463 19.1294 13.7952C18.596 15.3743 17.0699 19.7052 18.2462 21.0229C19.9772 22.9623 22.6831 18.7974 23.4038 17.5256C24.2269 16.0737 26.4065 11.2023 26.6891 9.70452C26.841 8.89556 26.6078 8.8355 26.4559 8.25263C26.2475 7.45427 28.7168 7.64503 29.2785 7.73334C30.3771 7.9029 30.1298 8.53877 29.8684 9.35479C28.9923 12.089 25.3079 17.893 25.6611 20.4965C25.8236 21.6976 27.2437 21.3832 28.0244 20.8992C30.0168 19.6664 29.0736 18.5607 30.1121 17.1688C30.582 16.5365 31.1295 16.6566 31.3344 16.4058C33.3409 13.9754 34.8988 7.34476 37.8732 5.88934C38.9118 5.38065 40.936 5.05565 41.2115 6.57112C40.2118 7.39068 39.6607 5.91053 38.555 6.92085C35.8914 9.36186 39.4841 13.124 40.074 15.4591C40.6286 17.6387 39.8479 20.2704 38.0322 21.6305C38.4949 21.5316 39.0778 21.2913 39.4699 21.0405C41.5224 19.7335 40.3036 18.6596 41.4129 17.1688C41.8898 16.5259 42.4161 16.6813 42.78 16.2433C43.9916 14.7808 45.4046 10.7819 46.5421 8.90262C47.4818 7.34476 48.9337 5.34885 50.9861 5.44777C52.0812 5.50076 53.2081 6.6877 52.0671 6.85373C51.1521 6.98444 50.7848 5.94586 49.7886 7.03389C47.1709 9.88821 51.5655 13.8906 51.6114 16.8156C51.6432 18.6455 50.7636 20.5248 49.3329 21.6375C53.0103 20.5813 54.0065 15.936 55.7233 12.9545C57.1928 10.4075 60.3757 6.69123 63.6857 7.24231C66.2009 7.65916 65.9112 9.97299 64.908 11.7251C63.4455 14.2757 60.1991 15.6852 57.4083 16.1797C56.3097 18.5995 56.2638 22.6761 60.1001 21.3726C64.4805 19.8854 67.2607 11.1741 68.3946 7.10101C68.649 6.18607 68.6348 5.05212 69.0234 4.20783C70.1221 1.81981 72.8598 4.21843 71.5563 6.91025C71.1571 7.73334 70.3234 8.2279 69.8183 8.96267L75.1772 8.78251C75.7 8.90969 75.0995 10.6548 74.9723 11.0222C74.2128 13.2265 72.6902 15.3001 71.8883 17.6316C71.5527 18.6066 70.3517 21.6481 72.3334 21.0688C73.9019 20.6096 76.138 15.9395 76.7915 14.4205C77.2013 13.4667 78.7486 9.63386 78.6426 8.88849C78.5932 8.53523 78.088 8.04774 78.466 7.81459C78.7239 7.65562 80.9459 7.68388 81.345 7.7722C82.7051 8.06893 81.5075 9.98712 81.1507 10.8455C80.1369 13.3007 78.0421 16.7732 77.6288 19.3096C77.007 23.1283 80.4725 20.7968 81.723 19.1647C84.4678 15.5827 85.2415 10.1779 89.8303 7.87818C92.9425 6.32031 96.2878 7.56378 94.3979 11.3754C93.0273 14.1379 89.5194 15.6675 86.6368 16.2256C84.3795 24.1033 90.3743 22.4112 93.4512 17.6493C93.8221 17.0735 94.9278 14.6289 95.1609 14.424C95.4188 14.1979 95.6449 14.2297 95.9558 14.2509C96.2878 14.583 94.6487 17.6528 94.3343 18.1792C92.1123 21.8954 87.9651 24.7038 84.1252 21.2066L83.1537 18.8327C81.716 20.9275 80.2005 22.9623 77.3356 22.5172C76.0391 22.3158 75.1206 20.7897 75.2902 19.5357C74.0185 21.037 72.1498 23.5098 69.8677 22.39C67.7658 21.3585 68.4017 18.5147 69.0799 16.7732C69.6593 15.286 71.853 12.5447 71.5845 11.1705C71.4432 10.4464 68.8221 9.92 68.4193 10.4817C67.8965 11.2129 67.296 13.5374 66.8438 14.5477C65.6357 17.2607 63.7776 21.1253 60.8491 22.3052C57.9029 23.4957 53.9111 22.3582 54.0948 18.6525C52.975 20.0196 52.1907 21.6199 50.4527 22.3264C48.5734 23.093 45.6908 22.4818 43.6313 22.6585C42.5821 22.39 41.7096 21.6481 41.1161 20.7685C40.6851 21.1394 40.3283 21.6552 39.8514 21.9696C37.8697 23.2661 34.6232 22.4536 32.3271 22.662C31.239 22.3935 30.4054 21.687 29.8119 20.7721C27.7771 23.2484 23.4462 23.4745 23.2766 19.5357C21.2277 23.4603 15.1129 24.4813 15.4167 18.6561C13.9577 20.334 12.8873 22.9446 10.2096 22.7079C7.77217 22.4924 7.89581 19.949 8.17488 18.1297C6.86429 19.8854 3.035 24.8804 0.78828 21.7082C-2.82201 16.6142 6.78304 3.48719 13.1099 8.01595C14.5794 9.06865 14.0955 10.5629 13.1169 9.94826C12.5129 9.57028 12.9933 8.52464 11.0857 8.61295C7.65912 8.76838 2.62521 16.1303 2.36733 19.299C2.27548 20.4365 2.2543 21.3196 3.65673 21.1183C6.33795 20.7297 9.58084 13.1912 11.2376 11.1529C12.096 10.3651 13.6539 10.8279 14.7066 10.9162L12.5588 13.9683C11.7922 15.5403 10.7925 17.3349 10.6477 19.1082C10.3863 22.3052 11.7675 21.581 13.29 19.8041C16.215 16.3917 16.9851 11.5909 18.9457 7.65916C18.2356 7.32003 15.6074 8.14312 16.5753 6.70536C17.3172 5.6032 18.7443 6.5252 19.4791 6.0801C19.7158 5.93526 20.7402 3.55077 21.037 3.05268C22.0579 1.34292 23.319 -0.0312524 25.4809 0.000540763L25.4456 0.403254L22.3016 6.16135H26.0108L26.0179 6.14015ZM57.8146 15.1199C59.7222 14.6289 61.3578 14.0037 62.6719 12.4811C63.2159 11.8488 64.9186 9.15697 64.0001 8.50697C63.29 8.00535 61.167 10.2203 60.7254 10.7184C60.3227 11.1705 57.5779 14.8409 57.8146 15.1235V15.1199ZM87.1349 15.1199C88.9719 14.6183 90.7134 13.9648 91.9922 12.4811C92.6245 11.7499 94.6099 8.50697 92.6987 8.59529C91.9357 8.63061 90.3213 10.3474 89.7773 10.9798C89.4134 11.4001 86.9159 14.8656 87.1349 15.1235V15.1199ZM47.1497 20.6908C49.9158 17.9283 47.3688 12.7849 47.5631 9.48549L46.2984 11.4779C45.9522 12.1137 43.7373 16.1903 43.7125 16.4694C43.6913 16.7273 44.0835 17.0099 44.1683 17.3631C44.4367 18.4547 44.2707 19.5357 45.0903 20.493C45.7968 21.3161 46.3867 21.4503 47.1497 20.6908ZM36.0857 9.83522C35.6795 10.1567 35.3686 10.7855 35.1107 11.2412C34.7539 11.8806 32.4189 16.3175 32.4401 16.6142C32.4507 16.7838 32.7722 16.9957 32.8287 17.2218C33.129 18.4512 32.97 19.8183 34.0545 20.7544C35.0507 21.6093 35.5947 21.0688 36.2341 20.1079C38.2971 17.0063 36.3118 13.1594 36.0857 9.83522Z" fill="#0D0907"/>
</svg>
