<svg width="59" height="16" viewBox="0 0 59 16" fill="none" xmlns="http://www.w3.org/2000/svg">
<path d="M27.1657 14.6259C28.2876 14.5292 28.9387 13.7394 29.5545 12.9109C31.9948 9.62277 33.2746 3.05612 37.9296 1.9794C42.0978 1.01552 42.6136 5.33204 41.7497 8.35908C41.6175 8.82651 40.7149 10.5673 40.7245 10.6963C40.7826 11.4603 43.152 11.0831 43.8322 10.4351C44.9218 9.39711 46.0855 6.11862 47.0236 4.6196C48.3034 2.57579 48.8386 1.93427 51.5045 2.6596C49.8314 4.30368 48.658 6.42809 47.6393 8.52671C49.7766 6.45066 52.4555 3.93941 55.3311 2.93684C55.8565 2.75309 57.3652 2.19217 57.0235 3.17539C56.1466 5.69309 54.0932 8.39454 53.1164 11.1734C52.8746 11.8632 51.9075 14.3422 52.9133 14.6098C54.3188 14.9838 56.3497 11.86 56.9558 10.8252C57.2072 10.3997 58.1711 8.15276 58.3033 8.07217C58.5741 7.90776 58.9513 7.98191 58.9964 8.34941C59.1092 9.25849 56.5722 13.2591 55.8533 14.065C54.5864 15.4867 52.4426 16.5763 50.7437 15.1675C49.0449 13.7588 50.7663 10.1386 51.5851 8.52026C51.972 7.75303 52.8069 6.89875 52.8037 6.0348C52.8037 5.58671 52.2073 5.7898 51.9849 5.86717C50.6438 6.32816 47.9488 9.56152 47.0913 10.7897C46.6239 11.4603 44.4479 15.4512 44.1449 15.564C43.4711 15.8155 42.2622 15.6736 41.5176 15.9154L43.4518 11.7407C42.3493 12.0373 41.3435 12.2597 40.3054 11.6021C38.1166 15.5447 32.0174 18.23 31.2824 11.7375C30.3636 13.5073 29.1128 15.2384 27.0529 15.7188C25.4346 15.5511 23.3553 15.9766 21.8112 15.7188C20.8602 15.5608 19.9866 14.8 19.5127 13.9876C18.5617 14.6259 18.0298 15.4609 16.7758 15.5963C14.79 15.809 13.71 15.0128 13.5489 13.0238C13.1298 13.0302 11.6695 15.4866 10.2897 15.7188C7.41742 16.1991 7.01445 13.8393 7.50445 11.5795C6.24721 13.1108 2.68504 17.8528 0.663791 14.7839C-1.85068 10.967 3.31044 3.18184 7.25623 1.92783C8.71656 1.46362 11.9854 1.41204 12.7397 3.06256C12.9912 3.61381 12.8493 4.40684 12.124 4.16506C11.5727 3.98131 11.6469 2.70151 9.84162 2.89493C7.09182 3.18829 2.47551 9.70013 2.1886 12.2984C2.09511 13.1366 1.94683 14.3519 3.06867 14.3165C5.88939 14.2262 8.46512 7.19533 10.1801 5.31914C10.986 4.43908 12.4367 4.87428 13.4747 5.0677C11.908 6.47645 8.85196 12.2275 9.72558 14.1069C10.0093 14.7162 10.6959 14.4357 11.1376 14.1456C12.1981 13.4525 13.9035 10.4835 14.4708 9.27138C14.8867 8.38165 16.563 4.46487 16.6662 3.73631C16.7983 2.79822 15.7281 2.19539 16.7693 2.08256C17.4463 2.00842 19.6997 1.85368 19.7512 2.80467C18.8067 5.54803 17.2013 8.15921 16.2535 10.8865C15.8054 12.1791 14.6836 14.6775 16.937 14.468C17.5366 14.4132 18.8067 13.517 19.0291 13.0109C19.2838 12.4338 19.0839 11.5957 19.5933 10.8413C19.9995 10.2417 20.7119 10.232 20.8956 10.0128C21.4566 9.3423 22.5139 6.62474 23.0555 5.61895C24.0645 3.74921 25.7215 0.0161806 28.2166 6.21569e-05C29.4771 -0.0096089 30.5441 1.11223 29.3352 1.28954C28.6293 1.39269 28.5132 0.667365 27.6622 1.21539C26.9949 1.64092 26.6499 2.61125 26.5983 3.36881C26.4372 5.83816 28.9194 7.89487 28.9549 10.3674C28.9774 11.9309 28.294 13.5492 27.1689 14.6227L27.1657 14.6259ZM40.8664 6.75369C41.1468 4.37138 40.386 2.13414 37.82 4.11671C35.7729 5.69631 33.3036 11.0186 33.9838 13.5395C34.3707 14.9805 35.8471 14.5776 36.8303 13.8941C37.3848 13.5073 39.3029 11.2604 39.3932 10.6511C39.4447 10.303 38.9032 9.43901 38.7968 8.89743C38.497 7.35974 39.103 5.76401 40.8696 6.75369H40.8664ZM25.2315 3.86204C24.7544 4.37783 24.3579 5.16118 24.0194 5.78658C23.726 6.33138 21.8434 9.96447 21.8531 10.2127C21.8627 10.4996 22.198 10.6866 22.2593 10.9251C22.4817 11.7794 22.3914 12.8045 22.9395 13.6234C24.4772 15.9251 26.0245 12.3822 26.1825 10.9993C26.4629 8.55895 25.1477 6.2798 25.2315 3.86526V3.86204Z" fill="#0D0907"/>
</svg>
