<svg width="61" height="40" viewBox="0 0 61 40" fill="none" xmlns="http://www.w3.org/2000/svg">
<path d="M26.7839 18.8095L31.5592 11.3988C33.4918 8.86881 35.4772 5.80823 38.731 4.88409C46.6478 2.63873 43.2007 14.108 42.1149 17.8924C41.521 19.9586 40.5371 22.1758 40.0382 24.2314C39.996 24.4071 39.8063 24.8042 40.1331 24.7655C42.2379 21.3325 44.6413 18.0189 47.1713 14.8775C49.5045 11.9786 54.6102 5.86446 58.5598 5.77661C62.2634 5.69579 60.8578 10.5871 60.0742 12.6778C58.6336 16.522 56.3671 20.1729 54.937 24.1963C53.6333 27.8683 50.4217 37.4611 56.4058 38.4099C57.1472 38.5258 58.0151 38.1885 58.5809 38.8667C57.8465 39.6081 56.4831 39.2708 55.5589 39.081C44.2408 36.7478 53.8231 20.6262 56.332 14.5507C57.0101 12.9062 58.2154 10.5309 57.8781 8.74231C57.6567 7.58274 56.4796 8.02548 55.7346 8.34876C49.8946 10.8717 41.0502 25.398 37.8244 31.1291C37.1111 32.3941 36.2186 35.2052 34.8201 35.6656C33.8784 35.9783 32.3463 35.8658 32.6169 34.5306C36.3064 28.188 39.0438 21.3501 40.4388 14.1185C40.7866 12.3089 41.6159 8.51391 40.9272 6.90105C39.7079 4.0513 36.1483 7.50192 35.0485 8.74583C30.3259 14.0658 26.5484 21.1252 23.4738 27.5064C22.244 30.0539 21.0703 33.6697 19.6613 35.9642C19.2607 36.6178 18.6914 37.0922 17.8973 37.1871C14.4678 37.6052 16.9556 34.8538 17.6795 33.4659C21.0001 27.1058 24.5947 18.4757 25.9968 11.455C29.2682 -4.91257 15.3392 1.28238 8.59611 8.11684C5.7042 11.0474 2.88959 15.5979 2.54523 19.7758C1.62811 30.8621 13.4839 30.9183 16.9099 22.1864C17.5178 20.6332 18.1327 17.3513 16.0771 16.6134C15.5114 16.4096 12.9076 16.6626 13.0833 15.9211C13.3398 14.8389 17.047 15.4924 17.9219 16.3498C21.0703 19.4385 17.1453 25.3137 14.3975 27.3869C10.209 30.5458 4.14404 30.3034 1.30835 25.5562C-5.19581 14.6807 14.1234 -3.25051 24.6685 0.509325C32.125 3.16932 28.1473 13.4052 26.7839 18.8095Z" fill="#0D0907"/>
</svg>
