<svg width="13" height="17" viewBox="0 0 13 17" fill="none" xmlns="http://www.w3.org/2000/svg">
<path d="M11.7386 11.9594C13.4435 11.8261 13.2197 16.1812 12.2482 16.467C8.87886 16.2193 4.59992 16.9599 1.34249 16.5265C-0.124303 16.3313 -0.057631 14.7192 0.0495212 13.5429C0.237633 11.4856 1.37106 12.269 1.48774 11.8499C1.6568 10.3784 1.12104 0.956115 1.70919 0.456072C1.93778 0.260817 2.68308 0.134616 3.02121 0.10128C4.2356 -0.0177784 9.86704 -0.0844516 10.7647 0.208431C10.96 0.272722 11.2505 0.403686 11.3505 0.57513C11.7124 1.18709 11.3886 7.22333 11.4577 8.55678C11.5124 9.64973 11.8601 10.7974 11.741 11.9594H11.7386ZM5.75478 1.76571H2.89977V6.04703H5.75478V1.76571ZM10.0361 1.76571H7.18109V6.04703H10.0361V1.76571ZM5.75478 7.47335H2.89977V11.9928H5.75478V7.47335ZM10.0361 7.47335H7.18109V11.9928H10.0361V7.47335ZM11.4648 13.6596H1.71157V14.8502H11.4648V13.6596Z" fill="#0D0907"/>
</svg>
