<svg width="47" height="36" viewBox="0 0 47 36" fill="none" xmlns="http://www.w3.org/2000/svg">
<path d="M37.3654 2.1989L37.471 2.54758C41.222 3.48445 46.5509 6.29505 46.5967 10.7117C46.6495 15.9208 40.1231 20.584 35.6959 22.2147C31.952 23.5954 27.9403 23.8983 23.978 24.0533C20.1425 29.2448 16.1027 34.7885 9.22766 35.8592C6.50863 36.2818 0.672576 35.9191 0.0738264 32.4428C-0.753857 27.6458 5.57881 26.6596 9.01282 28.0966C9.71019 28.3889 10.0553 28.9278 9.00224 28.8116C7.77657 28.6742 7.06159 28.1741 5.59289 28.3783C2.21172 28.8468 1.87007 33.5558 4.99061 34.3905C10.957 35.9789 16.7578 30.0302 19.6494 25.5396C24.4394 18.1045 27.3486 9.22188 34.192 3.17098L29.7014 2.73425C22.6784 2.38909 8.3084 4.84748 5.61755 12.4269C3.09576 19.5309 11.4395 21.7146 15.0355 15.4947C15.2222 15.1706 15.7082 13.2828 16.2295 13.79C16.3774 22.3028 2.35965 22.4859 2.84217 13.5188C3.40218 3.10054 23.0236 0.90278 30.758 1.32543C31.9344 1.38882 34.8894 2.05801 35.7734 1.75512C36.1855 1.61424 36.9392 0.906302 37.4746 0.64567C37.8444 0.466045 39.9294 -0.453211 39.7533 0.279376C39.6441 0.730199 37.8761 1.86782 37.3654 2.20946V2.1989ZM24.6824 22.9121C28.8878 22.6761 33.0579 21.8766 36.7103 19.7211C40.8275 17.2909 46.7129 11.0076 42.2892 6.32675C41.3594 5.34057 38.0205 3.69577 36.6926 3.6359C36.4989 3.62885 36.351 3.59363 36.2066 3.76621L24.6789 22.9156L24.6824 22.9121Z" fill="#0D0907"/>
</svg>
