<svg width="87" height="21" viewBox="0 0 87 21" fill="none" xmlns="http://www.w3.org/2000/svg">
<path d="M23.5788 5.56452C23.8925 7.8055 20.054 6.32325 19.497 6.99875C18.7927 8.82995 17.9635 10.6451 17.336 12.502C16.8526 13.933 15.4696 17.8579 16.5357 19.052C18.1044 20.8096 20.5566 17.0351 21.2097 15.8826C21.9557 14.5669 23.9309 10.1521 24.187 8.79474C24.3247 8.06161 24.1134 8.00719 23.9757 7.47896C23.7869 6.75544 26.0246 6.92832 26.5337 7.00835C27.5293 7.16202 27.3052 7.73827 27.0683 8.4778C26.2743 10.9557 22.9353 16.2156 23.2554 18.575C23.4027 19.6635 24.6897 19.3786 25.3972 18.94C27.2028 17.8227 26.348 16.8206 27.2892 15.5593C27.715 14.9862 28.2112 15.0951 28.3969 14.8678C30.2153 12.6652 31.6271 6.6562 34.3227 5.33722C35.2639 4.87622 37.0983 4.58169 37.348 5.95509C36.442 6.69782 35.9426 5.35643 34.9405 6.27203C32.5267 8.4842 35.7825 11.8937 36.3171 14.0098C36.8198 15.9851 36.1123 18.3701 34.4667 19.6027C34.8861 19.513 35.4144 19.2953 35.7697 19.068C37.6297 17.8835 36.5252 16.9103 37.5305 15.5593C37.9627 14.9766 38.4397 15.1175 38.7694 14.7205C39.8675 13.3951 41.148 9.77116 42.1789 8.06802C43.0305 6.6562 44.3462 4.84741 46.2063 4.93705C47.1987 4.98507 48.2199 6.06074 47.1859 6.21121C46.3567 6.32966 46.0238 5.38845 45.121 6.37448C42.7487 8.96121 46.7313 12.5884 46.7729 15.2392C46.8017 16.8975 46.0046 18.6006 44.708 19.6091C48.0407 18.6518 48.9434 14.442 50.4993 11.74C51.8311 9.43181 54.7156 6.06394 57.7153 6.56336C59.9947 6.94112 59.7322 9.03804 58.823 10.6259C57.4976 12.9373 54.5555 14.2147 52.0264 14.6629C51.0308 16.8559 50.9892 20.5503 54.4659 19.369C58.4356 18.0212 60.9551 10.1265 61.9827 6.4353C62.2133 5.60614 62.2005 4.57849 62.5526 3.81336C63.5482 1.64921 66.0293 3.82296 64.848 6.26243C64.4862 7.00835 63.7307 7.45655 63.2729 8.12244L68.1294 7.95917C68.6033 8.07442 68.059 9.65591 67.9438 9.98886C67.2555 11.9865 65.8757 13.8658 65.1489 15.9787C64.8448 16.8623 63.7563 19.6187 65.5523 19.0936C66.9737 18.6775 69.0002 14.4452 69.5925 13.0686C69.9639 12.2042 71.3661 8.73071 71.27 8.05521C71.2252 7.73507 70.7674 7.29328 71.1099 7.08199C71.3436 6.93792 73.3573 6.96353 73.7191 7.04357C74.9516 7.31249 73.8664 9.05085 73.543 9.82879C72.6242 12.0538 70.7258 15.2007 70.3512 17.4993C69.7878 20.9601 72.9284 18.8471 74.0616 17.3681C76.5491 14.1219 77.2502 9.22372 81.4089 7.13961C84.2293 5.72779 87.261 6.85469 85.5483 10.309C84.3061 12.8125 81.1271 14.1987 78.5148 14.7045C76.4691 21.8436 81.9019 20.3102 84.6903 15.9947C85.0264 15.4729 86.0285 13.2575 86.2398 13.0718C86.4735 12.8669 86.6784 12.8957 86.9601 12.9149C87.261 13.2159 85.7756 15.9979 85.4907 16.4749C83.477 19.8428 79.7185 22.3879 76.2386 19.2185L75.3582 17.0672C74.0552 18.9656 72.6818 20.8096 70.0855 20.4062C68.9106 20.2237 68.0782 18.8407 68.2319 17.7042C67.0794 19.0648 65.3859 21.3058 63.3177 20.291C61.4129 19.3562 61.9892 16.779 62.6038 15.2007C63.1289 13.8529 65.1169 11.3687 64.8736 10.1233C64.7456 9.46703 62.3701 8.99002 62.0052 9.49904C61.5314 10.1617 60.9871 12.2683 60.5774 13.1839C59.4825 15.6425 57.7985 19.1449 55.1446 20.2141C52.4746 21.293 48.857 20.2621 49.0235 16.9039C48.0086 18.1428 47.2979 19.5931 45.7228 20.2333C44.0197 20.928 41.4074 20.3742 39.5409 20.5343C38.5901 20.291 37.7994 19.6187 37.2616 18.8215C36.871 19.1577 36.5476 19.6251 36.1154 19.91C34.3195 21.0849 31.3774 20.3486 29.2965 20.5375C28.3104 20.2942 27.5549 19.6539 27.0171 18.8247C25.1731 21.0689 21.2482 21.2738 21.0945 17.7042C19.2377 21.261 13.696 22.1862 13.9714 16.9071C12.6492 18.4277 11.6792 20.7936 9.25251 20.5791C7.04354 20.3838 7.15559 18.0788 7.4085 16.4301C6.22078 18.0212 2.75047 22.5479 0.714381 19.6731C-2.55745 15.0567 6.14714 3.16027 11.8808 7.26447C13.2126 8.21848 12.774 9.57267 11.8873 9.01563C11.3398 8.67308 11.7752 7.72547 10.0464 7.8055C6.94109 7.94636 2.3791 14.6181 2.1454 17.4897C2.06216 18.5206 2.04296 19.3209 3.31392 19.1385C5.74378 18.7863 8.68265 11.9545 10.1841 10.1073C10.962 9.3934 12.3739 9.81278 13.3279 9.89281L11.3814 12.6588C10.6867 14.0834 9.78074 15.7098 9.64948 17.3169C9.41258 20.2141 10.6643 19.5578 12.0441 17.9475C14.6949 14.855 15.3928 10.5043 17.1696 6.94112C16.5261 6.63379 14.1442 7.37972 15.0214 6.07675C15.6937 5.07791 16.9871 5.91347 17.653 5.5101C17.8675 5.37884 18.7959 3.2179 19.0648 2.7665C19.99 1.21702 21.1329 -0.0283225 23.0922 0.000490067L23.0601 0.365449L20.2109 5.58373H23.5724L23.5788 5.56452ZM52.3946 13.7025C54.1233 13.2575 55.6056 12.6908 56.7965 11.311C57.2895 10.738 58.8326 8.29852 58.0002 7.70946C57.3567 7.25486 55.4327 9.26214 55.0325 9.71354C54.6676 10.1233 52.1801 13.4496 52.3946 13.7057V13.7025ZM78.9662 13.7025C80.6309 13.2479 82.2092 12.6556 83.3681 11.311C83.9412 10.6483 85.7404 7.70946 84.0084 7.7895C83.3169 7.82151 81.8538 9.37739 81.3608 9.95044C81.0311 10.3314 78.7677 13.472 78.9662 13.7057V13.7025ZM42.7295 18.7511C45.2362 16.2476 42.928 11.5864 43.1041 8.59625L41.958 10.4018C41.6443 10.9781 39.637 14.6725 39.6146 14.9254C39.5954 15.1591 39.9507 15.4152 40.0276 15.7354C40.2709 16.7246 40.1204 17.7042 40.8631 18.5718C41.5034 19.3177 42.038 19.4394 42.7295 18.7511ZM32.7028 8.91319C32.3346 9.20451 32.0529 9.77436 31.8192 10.1873C31.4958 10.7668 29.3797 14.7878 29.3989 15.0567C29.4085 15.2103 29.6998 15.4024 29.7511 15.6073C30.0232 16.7214 29.8791 17.9603 30.862 18.8087C31.7648 19.5835 32.2578 19.0936 32.8372 18.2229C34.7068 15.412 32.9076 11.9257 32.7028 8.91319Z" fill="#0D0907"/>
</svg>
