<svg width="39" height="92" viewBox="0 0 39 92" fill="none" xmlns="http://www.w3.org/2000/svg">
<path d="M23.1073 3.65034C23.1372 3.05385 23.2593 0.274063 23.5518 0.0690916L28.3652 0L28.9732 3.64804L35.5069 18.6916C35.9537 19.2789 38.2775 17.9431 38.6944 20.1563C39.0145 21.856 38.7888 22.9914 36.9026 23.1065L36.9095 87.2834C37.2596 87.1176 38.5216 87.3479 38.5216 87.7441V91.6546C38.5216 91.68 38.2015 92.0001 38.1762 92.0001H0.3278C0.143555 90.2797 -0.867485 86.6501 1.93994 87.2834L1.91 23.0075C0.284042 22.7404 -0.137417 21.6786 0.115919 20.1172C0.387679 18.4452 2.23933 18.938 3.51292 18.7975L9.48474 4.63835C9.56765 4.32744 10.3622 3.65034 10.5672 3.65034H23.1073ZM27.2482 1.34959C27.1584 1.25977 24.8047 1.25977 24.7148 1.34959C24.6089 1.45553 24.9037 3.23349 24.4868 3.65034H27.4785C27.0593 3.23349 27.3564 1.45783 27.2505 1.34959H27.2482ZM33.9201 18.8367L27.9391 5.14502L10.9011 5.13811L4.9293 18.8367H33.9201ZM37.3816 20.2162H1.47933V21.499H37.3816V20.2162ZM35.53 22.9776H3.31947V87.4009C4.52396 86.9748 5.99331 87.1038 7.23005 87.4009V73.8267H8.60958V87.4009C8.7777 87.4631 8.88364 87.1706 8.95504 87.1706H13.3262C13.3953 87.1706 13.5036 87.4608 13.6717 87.4009V78.313C13.6717 78.1173 14.2014 76.7493 14.3534 76.4637C16.2442 72.9515 21.5781 72.4541 23.9848 75.5908C24.2565 75.9432 25.1754 77.5392 25.1754 77.8524V87.4009C25.4242 87.4861 25.6798 87.1706 25.7512 87.1706H29.8921C29.9612 87.1706 30.0694 87.4608 30.2376 87.4009V73.8267H31.6171V87.0554C31.6171 87.5667 32.156 87.1706 32.1929 87.1706H35.53V22.9776ZM23.7959 90.6229V78.313C23.7959 78.1633 23.1395 76.8322 22.976 76.6019C21.2326 74.1468 17.3289 74.4646 15.7813 76.9681C15.6017 77.2582 15.0535 78.5387 15.0535 78.7713V90.6206H23.7959V90.6229ZM1.47933 88.7804V90.6206H13.674V88.7804H1.47933ZM25.1777 88.7804V90.6206H37.1421V88.7804H25.1777Z" fill="#0D0907"/>
</svg>
