<svg width="36" height="43" viewBox="0 0 36 43" fill="none" xmlns="http://www.w3.org/2000/svg">
<path d="M20.8244 19.1875C19.9304 21.5791 18.5845 23.8094 17.4161 26.0848C21.4119 27.0918 25.5819 28.6733 28.9257 31.1037C31.937 33.2952 36.1942 38.256 32.7471 41.887C32.3469 42.3098 30.8106 43.1426 30.4878 42.4131C30.278 41.9322 30.859 42.0194 31.1398 41.7805C34.0414 39.3114 31.5464 35.2544 29.271 33.3275C25.7142 30.3162 20.4694 28.7863 15.9153 28.1666C13.0428 32.1946 9.2439 35.4286 3.941 34.9284C0.300295 34.583 -1.27476 31.2231 1.19433 28.3344C4.31217 24.6841 11.2482 25.0326 15.5344 25.7459C16.0799 25.591 18.4231 20.0654 18.7039 19.1681C14.9793 19.2972 9.70222 17.8319 8.77268 13.7071C7.78504 9.33371 11.5323 5.4703 15.5377 4.50849C16.3833 4.30515 18.8137 3.6209 18.5458 5.01199C12.5231 4.79251 7.51393 13.8878 13.8755 17.3123C14.8631 17.8448 17.7292 18.5678 18.7878 18.3677C19.0299 18.3225 19.1461 18.2386 19.2268 18.003C21.4248 12.3289 23.9713 0.55148 31.5303 0.022158C37.8209 -0.42002 36.2232 5.86084 34.2253 9.46604C31.5916 14.2267 26.434 18.7195 20.8212 19.1907L20.8244 19.1875ZM21.4538 18.2031C26.6115 17.4026 31.2527 13.0131 33.2603 8.33639C33.9865 6.64514 35.4163 2.17818 32.3469 2.10394C29.6422 2.03616 27.3861 5.66396 26.208 7.74252C24.3522 11.0153 22.9288 14.7431 21.4506 18.2031H21.4538ZM14.1886 27.8568C10.5769 27.8342 6.06474 27.321 2.8404 29.3318C-0.0902412 31.1618 0.923217 33.7955 4.12174 34.1086C7.81086 34.4701 10.7189 32.2527 12.9782 29.6255C13.1235 29.4576 14.3047 27.9568 14.1853 27.8535L14.1886 27.8568Z" fill="#0D0907"/>
</svg>
