<svg width="72" height="21" viewBox="0 0 72 21" fill="none" xmlns="http://www.w3.org/2000/svg">
<path d="M55.9839 9.53683C56.1522 9.58295 56.309 9.84351 56.2952 10.0649C56.2214 11.3677 53.8741 15.0847 53.4014 16.8602C53.1662 17.741 53.0071 18.5158 53.1062 19.4427C53.9663 19.6041 54.439 18.9908 54.9417 18.4005C55.9447 17.2268 59.0368 11.4968 59.0922 10.0856C59.1175 9.47457 58.6033 9.38465 58.6333 8.84739L61.5087 8.61219C61.8061 8.62603 61.5387 9.4838 61.4695 9.72591C60.7385 12.2485 58.5411 15.7903 58.2136 18.2391C57.9646 20.0976 59.5856 19.7909 60.5771 18.7394C63.0052 16.1684 62.9245 11.9557 66.2287 9.41693C70.8612 5.85902 73.0632 10.699 68.8412 13.6435C67.9143 14.2915 65.1104 14.9648 64.9006 15.4628C64.5178 16.3759 64.2849 19 65.3663 19.505C67.324 20.4181 69.3693 17.5911 70.1879 16.1431C70.6121 15.3914 70.9718 13.9779 71.4215 13.4614C71.6982 13.1432 71.9495 13.3645 71.991 13.5744C72.1617 14.4367 69.8374 18.2644 69.1203 18.9931C66.5908 21.5595 62.6801 21.2021 62.431 17.1392C61.1766 20.4965 56.6803 22.2558 56.4428 17.3698C53.4452 22.6732 49.2232 20.7017 51.9095 14.6835C52.2254 13.9756 53.5674 12.1401 53.5582 11.4922C53.5466 10.5975 51.3146 10.1594 51.0033 10.5998C50.6159 11.1486 49.9518 13.858 49.5253 14.831C48.6928 16.7241 47.5561 18.9631 45.6584 19.9477C44.012 20.8032 41.7407 21.149 40.7677 19.226L39.9745 16.9132C39.76 18.0408 38.4641 19.5465 37.4519 20.0353C36.8062 20.3466 34.0001 20.644 33.1769 20.621C31.4244 20.5703 30.7996 18.9954 30.6451 18.9908C30.5275 18.9885 29.5959 20.146 28.7497 20.3166C28.1801 20.4296 25.201 20.6625 24.6729 20.5864C23.7829 20.4573 22.7591 19.724 22.6945 18.7579C20.7438 21.1144 17.5456 21.0937 17.7439 17.3721C15.9477 21.2021 11.3083 21.7001 11.8663 16.4543L9.79107 19.5603C7.71121 21.5848 5.32236 19.6548 6.10634 17.1461C5.04105 18.5457 2.31555 22.1844 0.579251 19.5649C-1.97331 15.7142 4.43 5.67917 9.6481 8.6537C9.97323 8.83816 10.7826 9.64521 10.6119 10.0072C10.1554 10.9872 9.65272 9.75358 9.04398 9.48841C6.96181 8.57991 4.21556 12.1816 3.30475 13.7657C2.87817 14.5105 0.789081 18.9285 2.11263 19.2329C3.72672 19.6041 5.36617 16.7749 6.06253 15.6035C7.36763 13.4106 7.64203 10.2101 10.944 10.9272C10.4344 12.0479 9.7265 13.0186 9.22383 14.1577C8.49749 15.8133 7.88184 17.6142 7.95101 19.4473C8.92869 20.4688 11.8709 14.9694 12.1407 14.3099C12.8855 12.4791 13.0377 10.2332 14.1675 8.50612L12.0969 8.39083C12.0577 6.7191 13.7225 7.9435 14.518 7.24253C14.8247 6.97274 16.2151 3.40792 16.7501 2.56398C17.1559 1.92065 18.039 0.698559 18.6916 0.359601C22.7683 -1.75946 20.0059 6.1265 18.7792 7.35782L20.391 7.47311V8.16255C17.7992 7.66219 17.8776 9.15637 16.6625 10.7705C16.1506 11.4507 14.8524 12.735 14.5826 13.2977C14.103 14.2938 12.9339 19.2998 14.5688 19.415C16.2105 19.5303 17.8592 15.1631 18.544 13.8649C18.6501 13.6643 19.0628 13.5674 19.2934 13.1754C19.863 12.2024 20.7968 9.80662 19.9321 8.85892C20.7968 9.0503 21.8898 8.67445 22.6392 8.67676C22.8536 8.67676 23.1419 8.8128 23.1511 8.9696C23.1626 9.16098 21.8229 11.9095 21.6016 12.4837C21.1911 13.5536 19.0651 18.5296 19.5701 19.2352C20.2019 20.1229 21.7791 18.8017 22.1988 18.1468C22.5631 17.5796 22.6438 16.874 22.9597 16.3736C24.4862 13.9571 25.337 11.8911 26.7228 9.54145C27.8089 7.70139 29.2754 5.50393 31.4452 7.5884C30.9356 8.28938 30.2738 7.53998 29.5452 7.74059C26.3539 8.62603 31.7265 15.5989 29.5636 17.4505L27.8804 19.6825C29.0794 19.5603 30.2415 18.7925 30.6889 17.6534C31.3114 16.0693 31.1523 16.5627 31.9179 15.366C33.0685 13.5605 35.2152 7.45005 36.9654 6.88282C37.4104 6.73985 37.7355 6.74446 38.1898 6.82978C38.395 6.86667 39.428 7.21255 39.2804 7.58379C39.0429 8.181 37.9868 7.55612 37.3712 7.74289C35.0677 8.43464 37.634 12.9702 37.8462 14.0932C38.3074 16.5374 37.302 18.1122 35.5957 19.6802C40.212 19.1522 40.1082 13.602 42.7323 10.5791C43.8298 9.31317 47.533 6.7191 48.6075 9.0895C49.8827 11.9095 45.075 15.2622 42.527 15.0939C42.4809 16.6434 41.3349 19.8047 43.7676 19.694C47.0096 19.5465 49.4953 13.3945 50.2378 10.7105C50.3969 10.1364 50.2585 9.54144 50.3969 9.02493C50.5352 8.50843 51.3353 5.66303 51.476 5.49701C52.2969 4.51472 53.2284 5.40247 53.3345 6.45854C53.4659 7.75673 52.4537 8.66753 51.725 9.54605C52.8618 9.74897 55.0016 9.26935 55.9862 9.54605L55.9839 9.53683ZM19.9321 1.47562C19.5517 1.0329 18.4057 3.17272 18.2812 3.39408C17.5479 4.69458 17.1236 6.1265 16.478 7.46158C16.8677 7.44082 17.3404 7.54689 17.7093 7.42699C18.3157 7.23099 20.4164 2.03594 19.9321 1.47562ZM65.3156 14.3745C67.181 13.881 69.8581 12.4307 70.1118 10.2793C70.3839 7.985 68.078 10.0141 67.3932 10.8073C67.0565 11.1947 65.0966 14.107 65.3156 14.3722V14.3745ZM47.8051 9.30625C46.2002 8.51765 42.6492 13.9917 42.9721 14.3745C45.4139 13.7358 48.0057 12.1516 47.8051 9.30625ZM26.1787 19.1822C26.8635 19.5764 27.4791 18.1099 27.6475 17.598C28.4407 15.17 27.1794 12.7143 27.3016 10.2309L24.8482 15.4121C25.706 16.1108 25.3232 18.691 26.181 19.1845L26.1787 19.1822ZM34.9086 10.6921L32.8425 15.4144C33.5919 16.6942 33.2184 18.2944 34.5581 19.2098C35.7571 18.0892 35.9485 16.3022 35.794 14.7503L34.9062 10.6921H34.9086Z" fill="#0D0907"/>
</svg>
