<svg width="14" height="13" viewBox="0 0 14 13" fill="none" xmlns="http://www.w3.org/2000/svg">
<path d="M1.99815 11.6179C3.25593 12.9235 5.68064 9.02107 6.19236 8.16501C6.86429 7.04114 8.31816 3.01909 9.49225 2.90192C9.76963 2.87562 10.1044 3.06453 10.4248 3.07648C10.6735 3.08605 11.6826 2.62932 11.3813 3.31321C11.3215 3.44951 10.9581 3.68385 10.8194 3.94928C9.99919 5.51075 9.01879 7.40221 8.56445 9.09759C7.7347 12.1823 8.5788 13.0646 10.5013 10.3171C11.0059 9.59497 12.8997 5.48923 13.2895 5.46771C13.928 5.85748 13.3254 6.68962 13.1006 7.18461C12.0796 9.42758 9.10248 15.5204 6.42431 11.8499L6.00584 9.52562C4.22199 14.0713 -0.735025 14.5687 0.0923395 8.51174C0.618409 4.66426 4.70024 -0.943169 9.06422 0.135275C9.67638 0.285922 10.9557 0.845468 11.0274 1.53175C11.2259 3.43756 9.79115 1.46479 9.53051 1.34045C6.79973 0.0324504 2.8542 6.29986 2.16792 8.44C1.92402 9.20041 1.41947 11.0154 2.00054 11.6179H1.99815Z" fill="#0D0907"/>
</svg>
