<svg width="21" height="17" viewBox="0 0 21 17" fill="none" xmlns="http://www.w3.org/2000/svg">
<path d="M10.7998 13.9715C10.2904 15.7263 11.8061 17.4137 13.6256 16.9077C15.4451 16.4017 15.8441 14.1635 14.5203 12.9745C14.44 12.9022 14.0736 12.6904 14.0598 12.6667C14.0384 12.6318 14.0635 12.5707 14.0748 12.5334C15.3924 9.07873 16.7174 5.6266 18.0299 2.17073C18.0989 1.99002 18.1592 1.80183 18.2144 1.61739L20.3187 1.6149C21.2058 1.45787 21.2322 0.257722 20.3651 0.0396268C19.4943 0.0757682 18.5017 -0.0525963 17.6447 0.0259179C17.3335 0.0545819 17.075 0.244013 16.9583 0.526913L16.0737 2.82875L0.727567 2.82626C0.0449586 2.94091 -0.101854 3.39206 0.0600154 4.01145C0.649769 6.2759 1.55071 8.54035 2.17435 10.8036C2.2283 11.0304 2.60098 11.3158 2.82182 11.3158H12.8652L12.4386 12.3851L3.92478 12.3826C1.26462 12.5595 0.960958 16.3045 3.45173 16.9264C5.24985 17.3751 6.71921 15.6939 6.20851 13.9715H10.8011H10.7998ZM11.1486 4.41524H15.4802L14.5792 6.78313H10.9742L11.1486 4.41524ZM6.64392 4.41524H10.3644L10.1611 6.78313H6.8472L6.64392 4.41524ZM1.84684 4.41524H5.85842L6.03284 6.78313H2.57337L1.84684 4.41524ZM10.9165 7.5907L14.2593 7.60565L13.4738 9.72803H10.7559L10.9152 7.59195L10.9165 7.5907ZM7.07934 9.72803L6.93253 7.60441L10.1021 7.59195L9.92772 9.71557L7.07808 9.72803H7.07934ZM2.83562 7.59195L6.09181 7.60441L6.26498 9.72803L3.50192 9.71557L2.83437 7.59195H2.83562ZM12.2792 14.6956C12.2792 14.3043 12.5979 13.9877 12.9919 13.9877C13.3859 13.9877 13.7047 14.3043 13.7047 14.6956C13.7047 15.0869 13.3859 15.4035 12.9919 15.4035C12.5979 15.4035 12.2792 15.0869 12.2792 14.6956ZM3.30868 14.6956C3.30868 14.3055 3.6274 13.9877 4.0214 13.9877C4.41541 13.9877 4.73413 14.3043 4.73413 14.6956C4.73413 15.0869 4.41541 15.4035 4.0214 15.4035C3.6274 15.4035 3.30868 15.0869 3.30868 14.6956Z" fill="#8B0214"/>
</svg>
