<svg width="34" height="28" viewBox="0 0 34 28" fill="none" xmlns="http://www.w3.org/2000/svg">
<path d="M28.3467 0.111979C27.9095 0.701018 27.1456 0.915005 26.9685 1.71573C32.5528 3.08479 35.6798 7.51639 31.5611 12.6314C28.9059 15.9263 25.4291 17.5347 21.3082 18.241C20.3142 18.4113 17.9258 18.3147 17.224 18.7541C16.7592 19.0441 14.7896 22.1986 14.1016 22.9879C11.2117 26.3035 8.04558 28.4319 3.40689 27.9257C-0.741694 27.4724 -1.29392 22.2194 2.81785 21.3611C3.54495 21.2092 6.07138 21.3197 6.28536 22.0629C6.6121 23.1927 5.60428 22.2999 5.19702 22.224C1.69269 21.5843 1.22561 25.9009 3.73823 26.6717C8.39762 28.1028 12.4173 22.5277 14.3639 19.1131C17.5484 13.5241 19.6009 6.99177 24.4374 2.52106C21.4669 1.60759 18.2433 1.8975 15.2406 2.52106C10.9609 3.40692 2.11607 7.17585 3.99133 12.8546C5.38109 17.0584 10.7929 13.7381 11.3336 10.5651C12.1435 10.5053 11.5821 11.948 11.3819 12.4542C9.69535 16.7086 2.83856 16.9134 2.16209 11.6995C1.36596 5.55139 9.87482 1.70423 14.9024 1.03235C16.4808 0.820666 19.3432 0.539953 20.8756 0.551458C22.0767 0.560662 24.5341 1.24174 25.4821 1.1589C26.1746 1.09908 27.1226 -0.421839 28.3467 0.114278V0.111979ZM17.5438 17.8085C21.9846 17.5047 25.8364 16.5959 28.8138 13.1054C32.5436 8.73128 32.6012 3.67382 26.0642 2.64531L17.5438 17.8085Z" fill="#0D0907"/>
</svg>
