<svg width="38" height="38" viewBox="0 0 38 38" fill="none" xmlns="http://www.w3.org/2000/svg">
<path d="M37.9986 19C37.9986 29.493 29.492 37.9999 18.9993 37.9999C8.50662 37.9999 0 29.493 0 19C0 8.50693 8.50662 0 18.9993 0C29.492 0 37.9986 8.50693 37.9986 19ZM11.8592 25.7548C11.2495 25.8163 10.5564 25.7097 9.93684 25.7548L11.6966 26.6863C18.9586 29.5754 26.9006 24.7793 27.6212 17.0193C27.6619 16.5788 27.5246 15.7286 27.641 15.3913C27.6872 15.2562 29.8094 13.5096 29.6007 13.3426L27.5147 13.8908L28.5484 12.7835L29.1624 11.6959C28.522 11.8893 27.3532 12.6385 26.7007 12.5725C26.3536 12.5374 25.845 11.953 25.4254 11.7519C22.2892 10.2536 18.896 12.9504 19.6056 16.3075C16.9605 16.3262 14.1814 15.053 12.2436 13.2888C11.9284 13.0021 11.5516 12.433 11.3132 12.2419C11.0452 12.0266 10.8123 12.8021 10.7574 13.0087C10.3048 14.696 10.9793 16.4712 12.3546 17.5159C11.7449 17.5444 11.1342 17.3588 10.5981 17.0776C10.608 18.978 11.9075 20.651 13.7815 21.0333C13.8013 21.1937 13.4937 21.23 13.3883 21.242C12.9379 21.2904 12.4754 21.2289 12.025 21.253C12.6699 22.8074 14.0517 23.9093 15.7599 23.9993C14.8437 24.8705 13.1257 25.6273 11.8603 25.7559L11.8592 25.7548Z" fill="#0D0907"/>
</svg>
