<svg width="46" height="32" viewBox="0 0 46 32" fill="none" xmlns="http://www.w3.org/2000/svg">
<path d="M20.6355 14.2291C22.0958 12.2267 23.1132 9.92896 24.5942 7.93347C25.9184 6.15022 28.6544 2.76596 31.1782 3.80177C34.0664 4.98753 32.7515 10.0812 32.2763 12.3858C31.8495 14.4574 31.0259 16.5637 30.6476 18.5938C30.6038 18.8314 30.3431 19.3481 30.7722 19.2951C31.9164 16.9443 33.6189 14.4298 35.1968 12.3097C36.8117 10.1412 41.0195 4.61842 43.8063 4.53537C46.0601 4.46847 46.1755 6.79616 45.8848 8.47791C45.3404 11.6315 42.2376 16.596 41.1441 20.1002C40.3713 22.5755 39.4577 26.5319 40.0437 29.0441C40.4566 30.8066 42.4452 30.3498 43.6194 30.9958C43.8847 31.1434 44.0116 30.9866 43.9124 31.5102C34.5555 32.1492 38.2627 21.6873 40.3482 16.5383C41.2387 14.3375 44.1823 9.25303 43.9262 7.18834C43.8063 6.22173 43.3703 6.28402 42.4706 6.4432C39.3332 6.99686 33.1783 17.0158 31.515 19.9202C30.4976 21.6966 28.163 27.1409 27.0903 28.1698C26.2829 28.9449 24.7073 28.9518 24.7834 27.7315C24.8065 27.3531 27.2518 22.7324 27.6578 21.5928C28.7836 18.4207 31.1067 9.64059 31.019 6.51471C30.9567 4.26777 29.3765 4.30007 27.9047 5.47429C25.7085 7.22755 20.2964 16.8497 18.9007 19.7472C17.8557 21.9157 16.2409 27.4662 14.6537 28.8665C13.9616 29.4778 12.1668 30.1238 12.3745 28.6842C12.4483 28.1813 14.2061 25.5491 14.6145 24.6771C16.4623 20.7323 20.6309 8.48944 20.1188 4.48693C19.3944 -1.17426 12.6628 1.79475 9.73303 3.89174C5.36371 7.01762 0.33693 13.6639 2.55388 19.2905C3.83653 22.5478 7.27385 23.406 10.0468 21.2583C11.6293 20.0333 14.3169 15.7839 12.679 14.0053C11.5855 12.8172 9.91527 13.6431 9.81146 13.5301C9.78839 13.5047 9.7907 12.8726 9.81146 12.8449C9.87605 12.7665 11.5809 12.3743 11.7677 12.372C14.8198 12.3535 15.1105 15.8601 14.0008 18.0655C11.9823 22.0772 6.81708 25.0485 2.68077 22.1556C-1.26407 19.3989 -0.195965 14.2844 1.70033 10.6026C4.22871 5.69114 13.1242 -1.67486 18.9653 0.341388C24.1997 2.14771 21.6321 10.3927 20.6448 14.2198L20.6355 14.2291Z" fill="#0D0907"/>
</svg>
