<svg width="13" height="16" viewBox="0 0 13 16" fill="none" xmlns="http://www.w3.org/2000/svg">
<path d="M11.2964 11.7223C13.2771 11.1027 13.0659 15.6015 12.0709 15.8949C10.4445 15.7611 1.02446 16.3478 0.334504 15.6532C-0.137204 15.1768 -0.139551 12.2128 0.517554 11.8373C0.824985 11.6613 1.42107 11.8373 1.46566 11.5909C1.77075 8.32411 1.01508 4.20312 1.43985 1.04433C1.48209 0.734549 1.74024 0 2.03828 0H10.9467C10.9726 0 11.2988 0.326206 11.2988 0.35202V11.7223H11.2964ZM5.66879 1.40808H2.85497V5.62763H5.66879V1.40808ZM9.88834 1.40808H7.07452V5.62763H9.88834V1.40808ZM5.66879 7.03337H2.85497V11.7223H5.66879V7.03337ZM9.88834 7.03337H7.07452V11.7223H9.88834V7.03337ZM11.2964 13.1304H1.44923C1.93268 13.9963 1.23568 14.5361 2.27062 14.5361H11.2964V13.1304Z" fill="#0D0907"/>
</svg>
