<svg width="17" height="16" viewBox="0 0 17 16" fill="none" xmlns="http://www.w3.org/2000/svg">
<path d="M13.6074 1.27459C14.368 2.1648 13.7441 3.20922 12.9591 2.71154C12.3107 2.30148 12.8294 1.21501 10.7721 1.39375C7.36196 1.69166 2.32212 9.24791 2.25903 12.4898C2.22749 14.2212 3.51023 14.0985 4.63876 13.2749C7.62131 11.0914 8.60264 6.79458 10.7721 4.36578C11.6237 3.40899 12.1284 3.39497 13.4006 3.49661C15.4054 3.65782 14.3154 3.96624 13.6705 4.80738C12.202 6.72448 10.1693 10.7725 10.5057 13.1978C10.7616 15.0308 12.5595 13.1767 13.1448 12.4933C13.7301 11.8099 14.2768 10.8741 14.7465 10.075C15.0934 9.48623 15.9346 7.43595 16.201 7.15907C16.4007 6.95229 17 6.77005 17 7.2537C17.0035 8.77477 13.7967 13.7235 12.4929 14.6452C10.5057 16.0506 8.01735 15.5039 7.87716 12.8333C7.84561 12.2445 8.03487 11.8134 8.06291 11.2737C8.07342 11.0844 8.15754 10.7865 7.88416 10.8321C6.79068 13.0611 2.23099 17.8276 0.433054 13.8006C-1.63125 9.17431 4.09552 0.836496 8.92508 0.0759643C10.369 -0.151845 12.6051 0.100497 13.6074 1.27459Z" fill="#0D0907"/>
</svg>
