<svg width="20" height="17" viewBox="0 0 20 17" fill="none" xmlns="http://www.w3.org/2000/svg">
<path d="M15.5412 14.7886C14.2342 13.8106 12.952 12.7878 11.6379 11.8148C8.29057 14.8391 2.8476 13.9776 0.76542 9.96846C-1.49028 5.62468 1.48864 0.297382 6.44306 0.0125668C11.8384 -0.298204 15.4794 5.2143 13.0338 9.95863L13.0558 10.1165L19.6729 15.0979C20.4231 15.958 19.8037 17.1884 18.6226 16.9752C18.2229 16.9029 16.0426 15.1632 15.5412 14.7886ZM12.4827 6.82076C12.4827 3.7804 9.98377 1.31528 6.90174 1.31528C3.81971 1.31528 1.32081 3.7804 1.32081 6.82076C1.32081 9.86112 3.81971 12.3262 6.90174 12.3262C9.98377 12.3262 12.4827 9.86112 12.4827 6.82076Z" fill="#8B0214"/>
</svg>
