<svg width="31" height="40" viewBox="0 0 31 40" fill="none" xmlns="http://www.w3.org/2000/svg">
<path d="M17.281 18.13C16.5541 18.7161 15.1188 23.7767 13.9973 24.7551C18.9033 25.7751 27.543 30.4111 27.5499 36.1686C27.5499 37.0478 26.9776 38.9239 25.9992 39.1869C24.6308 39.5538 25.8861 37.8416 25.9692 37.3085C27.1461 29.8734 18.5733 27.8865 13.095 26.3843C11.9804 28.6388 9.51128 31.0872 7.23828 32.1787C1.06773 35.1394 -3.08136 28.6204 2.92305 25.5582C5.96448 24.0075 9.52051 24.1274 12.8181 24.5036L15.8388 18.4138C15.9011 17.95 15.8249 18.1138 15.5018 18.0723C13.8034 17.8577 12.9565 18.13 11.2235 17.2761C6.47216 14.9316 6.34985 9.43949 10.5543 6.44652C11.4866 5.78424 14.9457 4.24275 15.8411 5.16811C16.4318 5.77962 14.4265 5.6204 14.168 5.68039C9.20899 6.8342 7.49212 15.4001 13.0765 17.0385C14.0227 17.3154 15.8664 17.83 16.4895 16.7639C17.2187 15.5154 17.8279 12.8271 18.4371 11.334C19.9694 7.56802 23.8969 -1.4432 29.2275 0.19751C31.6574 0.945176 31.0667 4.73427 30.4852 6.55267C29.1421 10.7433 24.9469 15.3124 20.9086 17.0315C20.184 17.3408 17.4702 17.9869 17.2856 18.1346L17.281 18.13ZM17.9156 16.9185C21.9516 15.9839 25.7015 12.8848 27.716 9.31719C28.5075 7.91416 31.4105 1.61438 27.9653 1.93514C25.9553 2.12206 22.8008 7.20573 21.7924 8.9272C21.3516 9.68179 17.5925 16.6116 17.9133 16.9185H17.9156ZM11.6897 26.1443C9.11206 25.9505 6.74907 25.7451 4.24993 26.6543C2.65998 27.2335 -0.572986 29.5873 1.91924 31.1864C4.63068 32.9264 10.7989 29.0957 11.692 26.142L11.6897 26.1443Z" fill="#0D0907"/>
</svg>
