<svg width="20" height="20" viewBox="0 0 20 20" fill="none" xmlns="http://www.w3.org/2000/svg">
<path d="M4.43797 0.135955C7.97891 0.322447 12.0038 -0.230166 15.4898 0.117648C17.8146 0.349906 19.5971 2.21941 19.9071 4.50995C19.6932 8.03156 20.1977 11.8953 19.9071 15.3757C19.7081 17.7498 17.7665 19.6959 15.388 19.895C11.9077 20.1856 8.04412 19.6833 4.52263 19.895C2.19099 19.6387 0.326131 17.7154 0.117908 15.3757C-0.207012 11.7248 0.240325 7.4206 0.262063 3.7388C0.83296 1.81324 2.4404 0.400247 4.43797 0.13481V0.135955ZM17.8546 3.57748C17.8546 2.79376 17.2197 2.15762 16.4348 2.15762C15.65 2.15762 15.015 2.79261 15.015 3.57748C15.015 4.36235 15.65 4.99734 16.4348 4.99734C17.2197 4.99734 17.8546 4.36235 17.8546 3.57748ZM16.1671 9.99831C16.1671 6.60026 13.4122 3.84521 10.0142 3.84521C6.6163 3.84521 3.86135 6.60026 3.86135 9.99831C3.86135 13.3964 6.6163 16.1514 10.0142 16.1514C13.4122 16.1514 16.1671 13.3964 16.1671 9.99831Z" fill="#0D0907"/>
</svg>
