<?xml version="1.0" encoding="UTF-8"?>
<svg id="Layer_2" data-name="Layer 2" xmlns="http://www.w3.org/2000/svg" viewBox="0 0 469.34 469.34">
  <g id="Layer_1-2" data-name="Layer 1">
    <path d="M469.34,234.67c0,129.6-105.06,234.67-234.67,234.67S0,364.27,0,234.67,105.06,0,234.67,0s234.67,105.06,234.67,234.67ZM255.63,311.53V103.43c0-.38-2.44-6.11-2.96-7.02-7.94-14.04-28.94-13.64-36.37.63-.45.86-2.59,6.05-2.59,6.39v208.09l-48.89-48.42c-21.37-16.84-46.01,9.04-29.46,29.46,29.13,24.89,55.55,61.12,84.82,84.85,8.59,6.96,18.26,8.36,27.49,1.5,25.28-29.51,61.65-56.18,85.83-85.83,17.58-21.55-8.05-46.6-28.98-29.98l-48.89,48.42Z"/>
  </g>
</svg>