<?xml version="1.0" encoding="UTF-8"?>
<svg id="Layer_2" data-name="Layer 2" xmlns="http://www.w3.org/2000/svg" viewBox="0 0 91.43 106.18">
  <defs>
    <style>
      .cls-1 {
        fill: #171513;
      }
    </style>
  </defs>
  <g id="Layer_1-2" data-name="Layer 1">
    <g>
      <path class="cls-1" d="M31.19,11.98c-.7-4.55,1.37-10.36,6.34-11.35,3.93-.78,11.87-.85,15.8-.07,5.58,1.12,7.07,6.39,7.28,11.42l25.34.33c8.48,4.05,6.97,19.96-3.4,19.62l-4.49,60.57c-.59,3.51-.55,7.05-3.06,9.9-4.42,5-11.34,2.7-17.14,2.8-11.48.19-23.32,1.81-34.82.46-2.07-.24-5.04-1.47-6.49-2.98-3.78-3.94-4.31-17.02-4.78-22.64-1.19-14.32-.51-31.42-2.63-45.23-.64-4.17-1.5-2.15-4.23-3.25C-.58,29.34-1.27,19.75,1.87,15.3c.55-.78,3.54-3.32,4.15-3.32h25.17ZM53.62,11.98c-.04-2,.62-4.16-1.62-5.11-1.48-.62-10.72-.65-12.36-.15-2.53.77-1.99,3.12-1.97,5.26h15.95ZM7.41,18.61c-2.12,1.71-1.45,7.63,2.09,7.34l72.31.02c3.84-.5,4.13-5.73,1.21-7.74l-73.04-.28c-.91.03-1.84.07-2.58.67ZM76.05,31.92H15.24l5.26,65.29c.81,1.65,3.76,2.34,5.46,2.51,7.95.8,16.48-.32,24.4-.51,5.18-.13,12.66.74,17.44,0,1.44-.22,2.5-1.1,3.05-2.44l5.21-64.84Z"/>
      <path class="cls-1" d="M59.47,42.98c2.1-.44,3.01.66,3.9,2.38.95,10.18.43,20.5-.3,30.67-.64,3.05.92,7.21.5,9.96-.61,3.98-5.8,4.48-6.44,1.02-.98-5.28.69-13.35,0-18.95-.41-6.22-1.19-14.19-.46-20.37.21-1.81.75-4.27,2.8-4.7Z"/>
      <path class="cls-1" d="M44.51,42.98c2.36-.68,4.51,1.33,4.66,3.66.09,1.39-.53,2.61-.55,3.96-.18,9.39,1.26,19.14,1.01,28.43-.04,1.63-.46,6.74-.96,8.02-.72,1.85-2.21,2.69-4.16,2.11s-2.23-3.86-2.37-5.61c-.95-12.34,1.39-25.48.49-37.93-.05-1.02.94-2.36,1.88-2.63Z"/>
      <path class="cls-1" d="M28.83,43.52c1-.94,3.92-.81,4.61.36.21.36.68,7.01.74,8.24.45,9.12,1.02,25.19.02,33.91-.52,4.5-5.66,4.11-6.02,1.01-.06-12.15.17-24.3.05-36.44-.02-2.04-1.39-5.21.6-7.08Z"/>
    </g>
  </g>
</svg>