<?xml version="1.0" encoding="UTF-8"?>
<svg id="Layer_2" data-name="Layer 2" xmlns="http://www.w3.org/2000/svg" viewBox="0 0 253.16 226.77">
  <g id="Layer_1-2" data-name="Layer 1">
    <g id="aZpSZM">
      <g>
        <path fill="currentColor" d="M89.44,147.87l3.5,13.61,129.66-.09c9.89-1.12,12.05,13.8,1.93,14.58-44.42-2.93-93.7,3.82-137.55.02-1.66-.14-3.26-.1-4.7-1.11L40.99,15.27l-37.03-.25C-1.37,13.49-2.36,1.57,7.57.64c9.35-.87,28.49-.84,37.87.02,3.44.32,6.38,1.18,7.93,4.66,2.91,6.54,3.29,19.96,6.25,25.7.56,1.08.85,1.64,2.23,1.65l188.7,1.06c2.76,1.75,2.95,5.95,2.3,8.87l-34.59,100c-.29,2.1-4.67,5.28-6.34,5.28h-122.47ZM94.28,47.18h-30.01l7.75,33.89h26.14l-3.87-33.89ZM139.79,47.18h-30.98l4.84,33.89h27.11l-.97-33.89ZM189.16,47.18h-33.89v33.89h27.11l6.78-33.89ZM235.64,47.18h-31.95l-5.81,33.89h26.14l11.62-33.89ZM104.93,132.38c-1.92-11.05-1.9-23.47-3.88-34.36-.15-.81-.74-2.43-1.44-2.43h-22.75l9.2,36.79h18.88ZM115.58,95.59c1.37,11.7,2.1,23.69,3.88,35.33.54,3.54,2.67,1.44,5.26,1.42,2.06-.02,15.12.87,15.58.1l.43-34.41c.15-.83-.92-2.44-1.43-2.44h-23.72ZM180.45,95.59h-25.17v36.79h18.4l6.78-36.79ZM218.21,95.59h-23.24l-6.78,36.78c3.21-.86,17.23,1.62,18.41-.7l11.6-36.08Z"/>
        <path fill="currentColor" d="M83.07,187.97c18.48-23,55.92,4.65,36.39,30.09-17.9,23.31-56.75-4.75-36.39-30.09ZM107.57,209.56c7.45-7.45-3.46-20.78-12.21-12.69-9.22,8.52,4.84,20.06,12.21,12.69Z"/>
        <path fill="currentColor" d="M207.31,180.05c36.99-6.3,37.82,51.27.82,46.16-24.79-3.43-25.24-41.99-.82-46.16ZM210.2,194.53c-10.12,2.21-7.7,19.72,4.4,17.05,10.5-2.32,7.46-19.63-4.4-17.05Z"/>
      </g>
    </g>
  </g>
</svg>