<?xml version="1.0" encoding="UTF-8"?>
<svg id="Layer_2" data-name="Layer 2" xmlns="http://www.w3.org/2000/svg" viewBox="0 0 87.13 87.29">
  <defs>
    <style>
      .cls-1 {
        fill: #161717;
      }
    </style>
  </defs>
  <g id="Layer_1-2" data-name="Layer 1">
    <g>
      <path class="cls-1" d="M41.6.05c33.2-1.55,55.71,33.64,40.87,63.45-14.89,29.9-57.53,32.07-75.53,3.97C-11.2,39.14,8.27,1.6,41.6.05ZM40.11,7.04C15.24,9.28.09,35.51,9.9,58.5c11.68,27.37,50.73,29.65,65.43,3.83,14.83-26.05-5.45-57.97-35.22-55.29Z"/>
      <path class="cls-1" d="M64.86,40.35c.14.04,1.87,1.76,1.99,2.01.91,1.96-.56,4.42-2.59,4.88-2.76.62-17.14.5-20.32.12-1.89-.22-3.48-1.21-3.75-3.23-.41-3.1-.47-18.66.13-21.39.55-2.52,3.61-3.13,5.54-1.89.21.14,1.33,2.15,1.33,2.29v17.23h17.68Z"/>
    </g>
  </g>
</svg>