<?xml version="1.0" encoding="UTF-8"?>
<svg id="Layer_2" data-name="Layer 2" xmlns="http://www.w3.org/2000/svg" viewBox="0 0 147.5 146.18">
  
  <g id="Layer_1-2" data-name="Layer 1">
    <path fill="currentColor" d="M85.09,146.18v-50.89h16.24l4.75-20.96h-20.24c-.05,0-.75-.7-.75-.75v-16.47c0-2.29,6.95-8.23,9.24-8.23h11.49c.05,0,.75-.7.75-.75v-18.21c-3.31-.9-6.84-.41-10.26-.48-12.32-.23-23.4.25-30.3,12.12-.65,1.12-3.41,6.75-3.41,7.57v25.2h-18.99v20.21c0,.05.7.75.75.75h18.24v50.89C25.1,141.05-2.25,106.79.15,69.09,4.24,4.65,86.1-24.46,129.05,24.69c38.45,44,13.44,113.06-43.96,121.48Z"/>
  </g>
</svg>