<?xml version="1.0" encoding="UTF-8"?>
<svg id="Layer_2" data-name="Layer 2" xmlns="http://www.w3.org/2000/svg" viewBox="0 0 226.77 216.5">
  <g id="Layer_1-2" data-name="Layer 1">
    <g id="LBcONC.tif">
      <path d="M226.77,83.04v3.51c-1.01,1.05-1.29,2.34-2.25,3.52-8.13,10.03-22.12,21.18-31.64,30.58-3.32,3.28-15.31,14.21-16.82,17.3-1.25,2.55-.68,4.24-.33,6.9,2.69,20.85,7.97,41.99,10.9,62.88-.02,4.56-3.03,7.31-7.04,8.76h-1.51c-1.02-.77-2.36-.6-3.63-1.13-19.13-8.04-38.3-21.77-57.46-30.35-2.85-1.16-4.42-1.16-7.27,0l-57.46,30.35-3.63,1.13h-1.51c-4-1.45-7.02-4.19-7.04-8.76,2.94-20.89,8.21-42.03,10.9-62.88.42-3.29,1-5.18-1.09-8.15L1.76,89.53c-4.24-7.37-.44-11.88,7.14-13.37,19.76-3.88,41.35-4.6,60.91-8.84,3.4-.74,4.97-.89,7.03-4.01,10.4-20.14,19.77-40.87,30.51-60.8,4.11-3.98,10.87-3.22,13.44,2.1l29.1,58.7c2.17,3.89,6.56,3.89,10.47,4.58,20.72,3.67,42.1,4.95,62.56,9.69,2.24,1.34,2.78,3.27,3.84,5.44Z"/>
    </g>
  </g>
</svg>