<?xml version="1.0" encoding="UTF-8"?>
<svg id="Layer_2" data-name="Layer 2" xmlns="http://www.w3.org/2000/svg" viewBox="0 0 226.77 185.44">
  <g id="Layer_1-2" data-name="Layer 1">
    <path fill="#8b0214" d="M180.04,164.63H46.77c-.31,6.39,2.1,16.71-5.39,19.73-3.09,1.25-18.96,1.32-22.74.72-11.81-1.86-6.56-19.39-7.99-27.89-.77-4.57-4.64-11.31-6.18-16.37-10.79-35.44-.61-52.36,15.47-82.46,6.29-11.78,22.35-43.08,32.04-49.97,7.79-5.54,27.43-7.33,37.28-7.82,18.38-.93,66.08-1.56,81.8,5.44,11.52,5.13,29.28,40.14,35.81,52.35,14.13,26.45,24.58,42.86,17.77,74.5-1.73,8.06-7.33,17.55-8.48,24.33-1.36,8.06,3.5,25.35-7.12,27.73-3.25.73-19.86.69-22.9-.24-8.12-2.48-5.91-13.56-6.1-20.04ZM183.12,62.11c1.47-1.42-8.1-19.72-9.72-22.57-3.89-6.81-6.34-13.01-14.49-15.24-16.77-4.58-50.7-4.27-68.56-3.18-6.94.42-24.45,2.2-29.27,6.61-3.36,3.07-17.24,28.84-17.42,32.83-.1,2.33.14,1.22,1.58,1.52,29.38,6.17,63.36,3.09,93.33,4.17l44.56-4.15ZM32.13,94.13c-13.94,2.89-14.06,27.35,2.8,28.53,22.99,1.6,21.03-33.47-2.8-28.53ZM185.91,94.13c-13.94,2.89-14.06,27.35,2.8,28.53,22.99,1.6,21.03-33.47-2.8-28.53ZM78.29,113.63c-7.8,1.44-7.13,9.08,1.8,10,15.57,1.59,51.06,1.59,66.63,0,2.59-.26,6.12-.65,6.7-3.59,1.04-5.32-2.15-6.2-6.7-6.66-12.6-1.28-57-1.87-68.43.25Z"/>
  </g>
</svg>