<?xml version="1.0" encoding="UTF-8"?>
<svg id="Layer_2" data-name="Layer 2" xmlns="http://www.w3.org/2000/svg" viewBox="0 0 226.77 291.54">
  <g id="Layer_1-2" data-name="Layer 1">
    <g id="UWMu03.tif">
      <path fill="#8b0214" d="M0,194.18c.9-1.35,1.87-1.91,3.29-2.6,7.55-3.62,26.21-7.25,30.44-13.57,2.26-3.37,2.01-5.6-.37-8.85-2.72-3.73-18.3-11.08-23.23-13.35-3.12-1.44-12.09-2.74-8.02-7.59,1.29-1.54,6.97-2.95,9.35-4.9,10.17-8.35-4.41-15.18-5.75-23.41-.89-5.5,3.77-3.59,3.6-8.5s-5.21-15.1-6.42-20.91c-.5-2.38-2.53-9.57.64-10.35,2.06-.51,8.33,6.34,10.43,7.96,6.3,4.88,18.45,13.34,26.49,9.18,2.84-1.47,4.52-8.3,8.33-6.85,1.59.61,10.66,15.56,12.68,18.35,1.44,1.98,4.52,6.86,6.12,8.14,3.42,2.76,9.35-.69,8.38-4.61-.45-1.84-7.78-10.53-9.54-13.45-3.49-5.81-7.67-14.08-7.6-20.98.01-1.14.97-8.11,1.32-8.34,1.8-1.2,4.66,3.27,5.88,4.3,13.69,11.51,16.6-4.78,15.77-15.78-.24-3.14-3.08-11.45-2.16-13.34,1.19-2.44,4.36-.07,6.48.33,16.3,3.09,19.24-5.77,23.12-19.71,1.09-3.92,3.95-24.26,5.45-25.25.36-.23,1.38-.04,1.85.26,1.54.98,4.38,24.37,5.47,28.63.95,3.72,2.83,10.45,5.39,13.22,2.98,3.22,11.05,5.58,15.31,4.85,1.63-.28,6.31-3.37,7.2-.69.3.89-2.91,15.37-3.06,18.49-.32,6.81-.29,15.63,8.93,15.18,6.79-.33,8.01-7.19,10.73-7.94,4.26-1.17,1.67,9.38,1.26,11.21-1.62,7.18-5.28,15.99-9.84,21.78-1.75,2.23-6.64,6.06-7.49,8.02-2.2,5.07,5.45,7.98,8.98,4.81,3.29-2.41,17.99-24.3,19.5-24.73,2.91-.84,3.45,2.93,4.89,4.83,4.43,5.86,10.62,5.73,16.79,2.65,7.31-3.66,14.9-10.27,22.05-14.52,5.8-1.83,4.08,1.91,3.1,5.58-1.82,6.83-7.59,18.64-8.19,24.72-.54,5.47,4.47,4.31,3.58,8.47-.39,1.83-7.76,8.92-9.45,12.27-1.13,2.25-2.67,6.08-1.02,8.38,1.55,2.16,19.74,6.35,11.65,12.18-2.91,2.1-10.65,4.18-14.5,5.96-4.46,2.06-18.22,8.27-18.59,13.52-.95,13.34,21.84,15.75,30.39,20.16,1.58.82,5.1,2.25,3.47,4.49-1.29,1.77-17.2,4.34-21.01,5.68-5.42,1.91-9.98,6.23-14.77,7.54-6.24,1.71-29.27.31-32.03,6.39s8.41,10.45,6.21,14.87c-.37.74-1.12,1.08-1.9,1.22-2.68.51-14.98-.63-17.64-1.54-3.05-1.04-3.71-2.79-5.65-4.26-7.08-5.37-14.83-11.06-24.1-11.55.64,25.54-13.76,47.91-21.69,71.32h-4.34c-.96-1.07-2.84-1.54-2.39-3.26,5.01-9.08,10.28-18.13,14.7-27.52,5.84-12.42,11.92-26.54,10-40.53-5.61,1.83-11.91,2.92-17.33,5.28-6.77,2.96-9.39,8.15-17.68,8.97-2.76.27-14.37.94-14.34-2.79s16.17-13.55.65-16.36c-8.3-1.51-16.58-1.73-24.73-4.4-8.94-2.93-16.76-9.11-26.3-12.13-3-.95-6.09-.16-8.71-3.38v-1.24Z"/>
    </g>
  </g>
</svg>