<?xml version="1.0" encoding="UTF-8"?>
<svg id="Layer_2" data-name="Layer 2" xmlns="http://www.w3.org/2000/svg" viewBox="0 0 147.44 147.14">
  <g id="Layer_1-2" data-name="Layer 1">
    <g>
      <path fill="currentColor" d="M68.07.21c59.1-4.34,98.85,58.72,69.46,110.27-28.06,49.23-100.44,48.72-128.08-.64C-16.81,62.96,14.55,4.14,68.07.21ZM59.57,28.65c-37.6.86-30.33,30.24-29.86,56.96.18,9.99-2,14.58,5.22,23.23,9.76,11.69,19.48,8.57,33.01,8.95,16.15.46,39.22,4.27,47.79-13.61,3.5-7.3,1.74-10.63,1.89-18.08.34-17.79,6.55-52.06-18.94-56.39-11.4-1.94-27.21.52-39.11-1.07Z"/>
      <path fill="currentColor" d="M73.07,36.64c12.37-.16,28.8-2.89,35.49,10.17,3.18,6.21,1.45,9.22,1.57,15.4.2,10.66,1.64,21.6.38,32.27-2.98,25.25-41.91,13.53-58.53,15.81-8.54-1.82-14.46-8.46-15.28-17.18-.93-9.97.11-19.99.51-29.91s-1.65-17.94,8.63-23.82c6.06-3.46,19.82-2.66,27.23-2.75ZM96.53,44.58c-6.61,1.28-5.11,12.06,2.77,10.27,5.68-1.3,4.39-11.65-2.77-10.27ZM69.55,51.09c-10.31,1.39-18.77,11.82-18.91,22.07-.26,19.79,23.34,30.84,38.25,17.7,17.19-15.15,4.29-42.95-19.34-39.77Z"/>
      <path fill="currentColor" d="M62.85,63.11c13.83-14.23,35.48,7.03,21.8,21.02s-35.62-6.81-21.8-21.02Z"/>
    </g>
  </g>
</svg>