<?xml version="1.0" encoding="UTF-8"?>
<svg id="Layer_2" data-name="Layer 2" xmlns="http://www.w3.org/2000/svg" viewBox="0 0 71.02 105.72">
  <defs>
    <style>
      .cls-1 {
        fill: #161717;
      }
    </style>
  </defs>
  <g id="Layer_1-2" data-name="Layer 1">
    <g>
      <path class="cls-1" d="M31.63.2c28.14-2.87,47.03,25.77,36.39,51.47-7.17,17.33-20.81,34.28-28.9,51.42-1.93,2.73-4.26,3.78-6.82,1.02-8.43-16.72-20.23-32.77-28.21-49.61C-6.93,31.25,5.04,2.91,31.63.2ZM35.71,94.93c6.74-13.17,15.14-25.52,22-38.61,5.78-11.02,9.26-19.58,3.83-31.97C48.63-5.1,3.81,5.94,6.81,40.27c.83,9.46,15.93,33.22,21.35,42.51,2.39,4.1,4.69,8.36,7.55,12.15Z"/>
      <path class="cls-1" d="M46.99,22.7c15.67,15.11-5.98,40.24-22.74,25.55s6.23-41.48,22.74-25.55ZM34.62,25.13c-15.22,1.53-9.2,26.03,5.1,19.14,10.07-4.86,5.25-20.18-5.1-19.14Z"/>
    </g>
  </g>
</svg>