<?xml version="1.0" encoding="UTF-8"?>
<svg id="Layer_2" data-name="Layer 2" xmlns="http://www.w3.org/2000/svg" viewBox="0 0 885.08 135.42">
  <g id="Layer_1-2" data-name="Layer 1">
    <g>
      <path d="M686.95,51.54c.98,7-11.01,2.37-12.75,4.48-2.2,5.72-4.79,11.39-6.75,17.19-1.51,4.47-5.83,16.73-2.5,20.46,4.9,5.49,12.56-6.3,14.6-9.9,2.33-4.11,8.5-17.9,9.3-22.14.43-2.29-.23-2.46-.66-4.11-.59-2.26,6.4-1.72,7.99-1.47,3.11.48,2.41,2.28,1.67,4.59-2.48,7.74-12.91,24.17-11.91,31.54.46,3.4,4.48,2.51,6.69,1.14,5.64-3.49,2.97-6.62,5.91-10.56,1.33-1.79,2.88-1.45,3.46-2.16,5.68-6.88,10.09-25.65,18.51-29.77,2.94-1.44,8.67-2.36,9.45,1.93-2.83,2.32-4.39-1.87-7.52.99-7.54,6.91,2.63,17.56,4.3,24.17,1.57,6.17-.64,13.62-5.78,17.47,1.31-.28,2.96-.96,4.07-1.67,5.81-3.7,2.36-6.74,5.5-10.96,1.35-1.82,2.84-1.38,3.87-2.62,3.43-4.14,7.43-15.46,10.65-20.78,2.66-4.41,6.77-10.06,12.58-9.78,3.1.15,6.29,3.51,3.06,3.98-2.59.37-3.63-2.57-6.45.51-7.41,8.08,5.03,19.41,5.16,27.69.09,5.18-2.4,10.5-6.45,13.65,10.41-2.99,13.23-16.14,18.09-24.58,4.16-7.21,13.17-17.73,22.54-16.17,7.12,1.18,6.3,7.73,3.46,12.69-4.14,7.22-13.33,11.21-21.23,12.61-3.11,6.85-3.24,18.39,7.62,14.7,12.4-4.21,20.27-28.87,23.48-40.4.72-2.59.68-5.8,1.78-8.19,3.11-6.76,10.86.03,7.17,7.65-1.13,2.33-3.49,3.73-4.92,5.81l15.17-.51c1.48.36-.22,5.3-.58,6.34-2.15,6.24-6.46,12.11-8.73,18.71-.95,2.76-4.35,11.37,1.26,9.73,4.44-1.3,10.77-14.52,12.62-18.82,1.16-2.7,5.54-13.55,5.24-15.66-.14-1-1.57-2.38-.5-3.04.73-.45,7.02-.37,8.15-.12,3.85.84.46,6.27-.55,8.7-2.87,6.95-8.8,16.78-9.97,23.96-1.76,10.81,8.05,4.21,11.59-.41,7.77-10.14,9.96-25.44,22.95-31.95,8.81-4.41,18.28-.89,12.93,9.9-3.88,7.82-13.81,12.15-21.97,13.73-6.39,22.3,10.58,17.51,19.29,4.03,1.05-1.63,4.18-8.55,4.84-9.13.73-.64,1.37-.55,2.25-.49.94.94-3.7,9.63-4.59,11.12-6.29,10.52-18.03,18.47-28.9,8.57l-2.75-6.72c-4.07,5.93-8.36,11.69-16.47,10.43-3.67-.57-6.27-4.89-5.79-8.44-3.6,4.25-8.89,11.25-15.35,8.08-5.95-2.92-4.15-10.97-2.23-15.9,1.64-4.21,7.85-11.97,7.09-15.86-.4-2.05-7.82-3.54-8.96-1.95-1.48,2.07-3.18,8.65-4.46,11.51-3.42,7.68-8.68,18.62-16.97,21.96-8.34,3.37-19.64.15-19.12-10.34-3.17,3.87-5.39,8.4-10.31,10.4-5.32,2.17-13.48.44-19.31.94-2.97-.76-5.44-2.86-7.12-5.35-1.22,1.05-2.23,2.51-3.58,3.4-5.61,3.67-14.8,1.37-21.3,1.96-3.08-.76-5.44-2.76-7.12-5.35-5.76,7.01-18.02,7.65-18.5-3.5-5.8,11.11-23.11,14-22.25-2.49-4.13,4.75-7.16,12.14-14.74,11.47-6.9-.61-6.55-7.81-5.76-12.96-3.71,4.97-14.55,19.11-20.91,10.13-10.22-14.42,16.97-51.58,34.88-38.76,4.16,2.98,2.79,7.21.02,5.47-1.71-1.07-.35-4.03-5.75-3.78-9.7.44-23.95,21.28-24.68,30.25-.26,3.22-.32,5.72,3.65,5.15,7.59-1.1,16.77-22.44,21.46-28.21,2.43-2.23,6.84-.92,9.82-.67l-6.08,8.64c-2.17,4.45-5,9.53-5.41,14.55-.74,9.05,3.17,7,7.48,1.97,8.28-9.66,10.46-23.25,16.01-34.38-2.01-.96-9.45,1.37-6.71-2.7,2.1-3.12,6.14-.51,8.22-1.77.67-.41,3.57-7.16,4.41-8.57,2.89-4.84,6.46-8.73,12.58-8.64l-.1,1.14-8.9,16.3h10.5ZM776.96,76.96c5.4-1.39,10.03-3.16,13.75-7.47,1.54-1.79,6.36-9.41,3.76-11.25-2.01-1.42-8.02,4.85-9.27,6.26-1.14,1.28-8.91,11.67-8.24,12.47ZM859.96,76.96c5.2-1.42,10.13-3.27,13.75-7.47,1.79-2.07,7.41-11.25,2-11-2.16.1-6.73,4.96-8.27,6.75-1.03,1.19-8.1,11-7.48,11.73ZM746.77,92.73c7.83-7.82.62-22.38,1.17-31.72l-3.58,5.64c-.98,1.8-7.25,13.34-7.32,14.13-.06.73,1.05,1.53,1.29,2.53.76,3.09.29,6.15,2.61,8.86,2,2.33,3.67,2.71,5.83.56ZM715.45,62c-1.15.91-2.03,2.69-2.76,3.98-1.01,1.81-7.62,14.37-7.56,15.21.03.48.94,1.08,1.1,1.72.85,3.48.4,7.35,3.47,10,2.82,2.42,4.36.89,6.17-1.83,5.84-8.78.22-19.67-.42-29.08Z"/>
      <path d="M227.96,53.53l13.59-21.09c5.5-7.2,11.15-15.91,20.41-18.54,22.53-6.39,12.72,26.25,9.63,37.02-1.69,5.88-4.49,12.19-5.91,18.04-.12.5-.66,1.63.27,1.52,5.99-9.77,12.83-19.2,20.03-28.14,6.64-8.25,21.17-25.65,32.41-25.9,10.54-.23,6.54,13.69,4.31,19.64-4.1,10.94-10.55,21.33-14.62,32.78-3.71,10.45-12.85,37.75,4.18,40.45,2.11.33,4.58-.63,6.19,1.3-2.09,2.11-5.97,1.15-8.6.61-32.21-6.64-4.94-52.52,2.2-69.81,1.93-4.68,5.36-11.44,4.4-16.53-.63-3.3-3.98-2.04-6.1-1.12-16.62,7.18-41.79,48.52-50.97,64.83-2.03,3.6-4.57,11.6-8.55,12.91-2.68.89-7.04.57-6.27-3.23,10.5-18.05,18.29-37.51,22.26-58.09.99-5.15,3.35-15.95,1.39-20.54-3.47-8.11-13.6,1.71-16.73,5.25-13.44,15.14-24.19,35.23-32.94,53.39-3.5,7.25-6.84,17.54-10.85,24.07-1.14,1.86-2.76,3.21-5.02,3.48-9.76,1.19-2.68-6.64-.62-10.59,9.45-18.1,19.68-42.66,23.67-62.64,9.31-46.58-30.33-28.95-49.52-9.5-8.23,8.34-16.24,21.29-17.22,33.18-2.61,31.55,31.13,31.71,40.88,6.86,1.73-4.42,3.48-13.76-2.37-15.86-1.61-.58-9.02.14-8.52-1.97.73-3.08,11.28-1.22,13.77,1.22,8.96,8.79-2.21,25.51-10.03,31.41-11.92,8.99-29.18,8.3-37.25-5.21C136.95,41.78,191.93-9.25,221.94,1.45c21.22,7.57,9.9,36.7,6.02,52.08Z"/>
      <path d="M397.45,94.9c3.48-.3,5.5-2.75,7.41-5.32,7.57-10.2,11.54-30.57,25.98-33.91,12.93-2.99,14.53,10.4,11.85,19.79-.41,1.45-3.21,6.85-3.18,7.25.18,2.37,7.53,1.2,9.64-.81,3.38-3.22,6.99-13.39,9.9-18.04,3.97-6.34,5.63-8.33,13.9-6.08-5.19,5.1-8.83,11.69-11.99,18.2,6.63-6.44,14.94-14.23,23.86-17.34,1.63-.57,6.31-2.31,5.25.74-2.72,7.81-9.09,16.19-12.12,24.81-.75,2.14-3.75,9.83-.63,10.66,4.36,1.16,10.66-8.53,12.54-11.74.78-1.32,3.77-8.29,4.18-8.54.84-.51,2.01-.28,2.15.86.35,2.82-7.52,15.23-9.75,17.73-3.93,4.41-10.58,7.79-15.85,3.42s.07-15.6,2.61-20.62c1.2-2.38,3.79-5.03,3.78-7.71,0-1.39-1.85-.76-2.54-.52-4.16,1.43-12.52,11.46-15.18,15.27-1.45,2.08-8.2,14.46-9.14,14.81-2.09.78-5.84.34-8.15,1.09l6-12.95c-3.42.92-6.54,1.61-9.76-.43-6.79,12.23-25.71,20.56-27.99.42-2.85,5.49-6.73,10.86-13.12,12.35-5.02-.52-11.47.8-16.26,0-2.95-.49-5.66-2.85-7.13-5.37-2.95,1.98-4.6,4.57-8.49,4.99-6.16.66-9.51-1.81-10.01-7.98-1.3.02-5.83,7.64-10.11,8.36-8.91,1.49-10.16-5.83-8.64-12.84-3.9,4.75-14.95,19.46-21.22,9.94-7.8-11.84,8.21-35.99,20.45-39.88,4.53-1.44,14.67-1.6,17.01,3.52.78,1.71.34,4.17-1.91,3.42-1.71-.57-1.48-4.54-7.08-3.94-8.53.91-22.85,21.11-23.74,29.17-.29,2.6-.75,6.37,2.73,6.26,8.75-.28,16.74-22.09,22.06-27.91,2.5-2.73,7-1.38,10.22-.78-4.86,4.37-14.34,22.21-11.63,28.04.88,1.89,3.01,1.02,4.38.12,3.29-2.15,8.58-11.36,10.34-15.12,1.29-2.76,6.49-14.91,6.81-17.17.41-2.91-2.91-4.78.32-5.13,2.1-.23,9.09-.71,9.25,2.24-2.93,8.51-7.91,16.61-10.85,25.07-1.39,4.01-4.87,11.76,2.12,11.11,1.86-.17,5.8-2.95,6.49-4.52.79-1.79.17-4.39,1.75-6.73,1.26-1.86,3.47-1.89,4.04-2.57,1.74-2.08,5.02-10.51,6.7-13.63,3.13-5.8,8.27-17.38,16.01-17.43,3.91-.03,7.22,3.45,3.47,4-2.19.32-2.55-1.93-5.19-.23-2.07,1.32-3.14,4.33-3.3,6.68-.5,7.66,7.2,14.04,7.31,21.71.07,4.85-2.05,9.87-5.54,13.2ZM439.95,70.48c.87-7.39-1.49-14.33-9.45-8.18-6.35,4.9-14.01,21.41-11.9,29.23,1.2,4.47,5.78,3.22,8.83,1.1,1.72-1.2,7.67-8.17,7.95-10.06.16-1.08-1.52-3.76-1.85-5.44-.93-4.77.95-9.72,6.43-6.65ZM391.45,61.51c-1.48,1.6-2.71,4.03-3.76,5.97-.91,1.69-6.75,12.96-6.72,13.73.03.89,1.07,1.47,1.26,2.21.69,2.65.41,5.83,2.11,8.37,4.77,7.14,9.57-3.85,10.06-8.14.87-7.57-3.21-14.64-2.95-22.13Z"/>
      <path d="M614.46,6.68l.3.99c10.65,2.66,25.78,10.64,25.91,23.18.15,14.79-18.38,28.03-30.95,32.66-10.63,3.92-22.02,4.78-33.27,5.22-10.89,14.74-22.36,30.48-41.88,33.52-7.72,1.2-24.29.17-25.99-9.7-2.35-13.62,15.63-16.42,25.38-12.34,1.98.83,2.96,2.36-.03,2.03-3.48-.39-5.51-1.81-9.68-1.23-9.6,1.33-10.57,14.7-1.71,17.07,16.94,4.51,33.41-12.38,41.62-25.13,13.6-21.11,21.86-46.33,41.29-63.51l-12.75-1.24c-19.94-.98-60.74,6-68.38,27.52-7.16,20.17,16.53,26.37,26.74,8.71.53-.92,1.91-6.28,3.39-4.84.42,24.17-39.38,24.69-38.01-.77,1.59-29.58,57.3-35.82,79.26-34.62,3.34.18,11.73,2.08,14.24,1.22,1.17-.4,3.31-2.41,4.83-3.15,1.05-.51,6.97-3.12,6.47-1.04-.31,1.28-5.33,4.51-6.78,5.48ZM578.45,65.49c11.94-.67,23.78-2.94,34.15-9.06,11.69-6.9,28.4-24.74,15.84-38.03-2.64-2.8-12.12-7.47-15.89-7.64-.55-.02-.97-.12-1.38.37l-32.73,54.37Z"/>
      <path d="M64.51,62.56c-2.77,7.41-6.94,14.32-10.56,21.37,12.38,3.12,25.3,8.02,35.66,15.55,9.33,6.79,22.52,22.16,11.84,33.41-1.24,1.31-6,3.89-7,1.63-.65-1.49,1.15-1.22,2.02-1.96,8.99-7.65,1.26-20.22-5.79-26.19-11.02-9.33-27.27-14.07-41.38-15.99-8.9,12.48-20.67,22.5-37.1,20.95-11.28-1.07-16.16-11.48-8.51-20.43,9.66-11.31,31.15-10.23,44.43-8.02,1.69-.48,8.95-17.6,9.82-20.38-11.54.4-27.89-4.14-30.77-16.92-3.06-13.55,8.55-25.52,20.96-28.5,2.62-.63,10.15-2.75,9.32,1.56-18.66-.68-34.18,27.5-14.47,38.11,3.06,1.65,11.94,3.89,15.22,3.27.75-.14,1.11-.4,1.36-1.13,6.81-17.58,14.7-54.07,38.12-55.71,19.49-1.37,14.54,18.09,8.35,29.26-8.16,14.75-24.14,28.67-41.53,30.13ZM66.46,59.51c15.98-2.48,30.36-16.08,36.58-30.57,2.25-5.24,6.68-19.08-2.83-19.31-8.38-.21-15.37,11.03-19.02,17.47-5.75,10.14-10.16,21.69-14.74,32.41ZM43.95,89.42c-11.19-.07-25.17-1.66-35.16,4.57-9.08,5.67-5.94,13.83,3.97,14.8,11.43,1.12,20.44-5.75,27.44-13.89.45-.52,4.11-5.17,3.74-5.49Z"/>
      <path d="M128.29,58.17c2.17,2.54.39,5.52-1.85,4.1-1.85-1.17-.37-4.27-6.24-3.76-9.73.85-24.11,22.41-24.29,31.66-.09,4.94,3.57,4.59,6.79,2.24,8.51-6.23,11.31-18.49,17.5-25.42,2.43-2.73,3.87-2.77,7.5-2.48,5.72.46,2.61,1.34.77,3.74-4.19,5.47-9.99,17.02-9.03,23.94.73,5.23,5.86-.06,7.53-2.01s3.23-4.62,4.57-6.9c.99-1.68,3.39-7.53,4.15-8.32.57-.59,2.28-1.11,2.28.27.01,4.34-9.14,18.46-12.86,21.09-5.67,4.01-12.77,2.45-13.17-5.17-.09-1.68.45-2.91.53-4.45.03-.54.27-1.39-.51-1.26-3.12,6.36-16.13,19.96-21.26,8.47-5.89-13.2,10.45-36.99,24.23-39.16,4.12-.65,10.5.07,13.36,3.42Z"/>
      <path d="M379.3,40.71c3.97,4.7-4.08,12.11-8.13,7.36-4.62-5.42,4.54-11.62,8.13-7.36Z"/>
      <path d="M698.31,39.68c9.67-2.22,6.67,11.75-.98,9.74-4.88-1.28-3.65-8.67.98-9.74Z"/>
      <path d="M845.31,39.68c9.67-2.22,6.67,11.75-.98,9.74-4.88-1.28-3.65-8.67.98-9.74Z"/>
    </g>
  </g>
</svg>