<?xml version="1.0" encoding="UTF-8"?>
<svg id="Layer_2" data-name="Layer 2" xmlns="http://www.w3.org/2000/svg" viewBox="0 0 128.45 135.82">
  <g id="Layer_1-2" data-name="Layer 1">
    <path d="M50.66,39.73c-3.9,4.01-14.87,9.38-15.67,14.53-.86,5.54,5,12.73,8.38,16.84,5.03,6.13,21.44,23.36,28.79,24.61,11.64,1.97,21.15-19.73,35.5-11.07,3.87,2.33,18.89,18.72,20.16,22.77,5.05,16.14-20.93,29.34-34.32,28.36-31.24-2.29-75.4-52.97-87.48-80.21C-2.17,37.1-3.46,24.19,11.43,9.2c12.17-12.25,19.48-12.27,31.43-.02,8.69,8.9,19.06,18.95,7.79,30.55Z"/>
  </g>
</svg>