<?xml version="1.0" encoding="UTF-8"?>
<svg id="Layer_2" data-name="Layer 2" xmlns="http://www.w3.org/2000/svg" viewBox="0 0 147.31 147.27">
  <g id="Layer_1-2" data-name="Layer 1">
    <path fill="currentColor" d="M52.23,144.27c2.32-5.19,5.33-10,7.37-15.34,2.7-7.05,3.83-14.58,6.37-21.57,17.27,17,41.31,3.73,50.49-14.96,20.43-41.57-22.42-79.37-62.91-61.32-22.51,10.03-34.82,37.72-21.02,59.76,1.57,2.5,7.69,10.07,10.88,8.97.97-.33,2.84-8.33,2.78-9.64-.1-2.15-3.43-6.14-4.35-8.63-6.34-17.11,4.9-36.03,21.99-40.68,28.93-7.87,47.85,16.68,38.87,43.81-3.6,10.88-18.04,26.67-29.51,15.96-9.89-9.24,8.05-29.14,1.78-40.7-4.79-8.84-16.21-3.7-19.36,4.17s-.68,12.49.04,19.6c.66,6.56-4.62,20.88-6.2,28.13-2.22,10.21-3.65,19.94-2.24,30.44C23.91,133.96,6.04,112.23,1.41,88-9.64,30.23,46.26-16.09,101.19,5.32c38.77,15.12,56.66,60.52,39.72,98.52-14.95,33.55-53.31,50.79-88.68,40.43Z"/>
  </g>
</svg>