<?xml version="1.0" encoding="UTF-8"?>
<svg id="Layer_2" data-name="Layer 2" xmlns="http://www.w3.org/2000/svg" viewBox="0 0 266.79 226.77">
  <g id="Layer_1-2" data-name="Layer 1">
    <path fill="currentColor" d="M86.2.13c68.39-3.46,117.12,62.71,90.46,126.79-.58,1.39-2.52,4.65-2.73,5.74-.16.81.09,1.55.33,2.29l88.49,66.84c12.38,15.45-6.22,33.14-21.39,20.89-29.31-20.85-57.24-43.55-86.06-65.05-9.03,7.95-19.4,14.38-30.76,18.47-45.02,16.19-96.17-3.23-116.24-46.94C-18.39,71.02,22.44,3.35,86.2.13ZM90.93,17.55C38.48,18.26,2.19,72.05,23.98,120.69c22.8,50.92,92.86,58.99,127.1,14.99,38.26-49.17,1.16-118.96-60.14-118.13Z"/>
  </g>
</svg>