<?xml version="1.0" encoding="UTF-8"?>
<svg id="Layer_2" data-name="Layer 2" xmlns="http://www.w3.org/2000/svg" viewBox="0 0 147.55 147.17">
  <g id="Layer_1-2" data-name="Layer 1">
    <path fill="currentColor" class="cls-1" d="M68.03.21c58.31-4.28,98.32,57.15,70.46,108.78-25.71,47.63-93.19,51.35-124.73,7.49C-19.6,70.1,11.26,4.38,68.03.21ZM47.4,99.86c-2.52.34-5.65-.25-8.25,0l6.24,3.5c26.23,11.44,58.98-7.17,61.66-35.75.21-2.24-.41-6.43.32-8.16.39-.93,8.25-6.54,7.23-7.49l-7.48,1.75c1.88-2.81,4.83-4.8,5.74-8.23-2.5.88-6.41,3.51-9.02,3.42-1.56-.05-3.36-2.35-4.78-3.12-11.9-6.52-25.99,4.73-22.93,17.65-10-.5-20.84-4.69-28.24-11.46-2.21-2.02-4.15-7.33-5.98-2-2.25,6.56.99,13.47,5.74,17.95-2.33.25-4.35-.89-6.49-1.49.07,7.16,5.32,13.91,12.49,14.97-.63,1.99-5.97.48-6.49,1,1.36,5.82,8,10.44,13.99,10.48-2.87,3.1-9.58,6.42-13.74,6.98Z"/>
  </g>
</svg>