<?xml version="1.0" encoding="UTF-8"?>
<svg id="Layer_2" data-name="Layer 2" xmlns="http://www.w3.org/2000/svg" viewBox="0 0 185.93 163.05">
  <defs>
    <style>
      .cls-1 {
        fill: #811c1e;
      }
    </style>
  </defs>
  <g id="Layer_1-2" data-name="Layer 1">
    <g>
      <path class="cls-1" d="M92.52,0c3.67-.04,8.38,1.61,11.15,4.04,27.89,45.1,53.52,91.82,80.6,137.5,5.17,10.04-2.53,20.28-12.97,21.5H15.08c-10.48-1.04-18.26-10.37-13.79-20.82C26.79,102.49,46.88,59.2,72.02,19.31,76.93,11.53,82.03.12,92.52,0ZM171.53,148.55L93.42,13.77c-1.05,0-2.09.43-2.65,1.34L14.35,148.55h157.18Z"/>
      <path class="cls-1" d="M91.07,56.34c6.06-.79,12.98,2.24,13.11,9.13.21,10.7-3.01,25.05-4.45,35.98-.35,2.69-.18,6.34-.67,8.81-1.15,5.8-10.87,5.78-12.25,0-.62-14.47-4.23-29.96-4.62-44.29-.16-5.88,3.15-8.88,8.88-9.62Z"/>
      <path class="cls-1" d="M91.06,118.22c12.54-2.11,13.78,15.87,2.73,16.74s-12.38-15.12-2.73-16.74Z"/>
    </g>
  </g>
</svg>